<svg xmlns="http://www.w3.org/2000/svg" viewBox="0 0 56.6 56.6"><path fill="#f3d55b" d="M54.5 49.6h-1.6l-2.4-2.4v-1.6a1 1 0 00-2 0v1.6l-2.4 2.4h-1.6a1 1 0 000 2h1.6l2.4 2.4v1.6a1 1 0 002 0V54l2.4-2.4h1.6a1 1 0 000-2z"/><circle cx="28.5" cy="27.6" r="23" fill="#4482c3"/><circle cx="2.1" cy="2.6" r="1" fill="#f3d55b"/><circle cx="4.1" cy="50.6" r="1" fill="#f3d55b"/><circle cx="20.6" cy="54.9" r="1" fill="#f3d55b"/><circle cx="14.6" cy="30.6" r="1" fill="#f3d55b"/><circle cx="44.9" cy="1" r="1" fill="#f3d55b"/><circle cx="54" cy="43" r="1" fill="#f3d55b"/><path fill="#a4e869" d="M29.9 25.7l.4.4c.7 1 .3 2.5 1 2.9.6.3.9.9.6 1.4-1 2.4 0 5 2.1 7 1.6 1.2.3 4.2-1 6.6-.5.8.4 1.8 1.3 1.5 1.4-.6 2.6-1.3 4-2.5 2-1.7 2.4-3.6 4.4-5v-.1c.5-1.5 2.1-4.7.5-5.5-1.5-.8-2-3-3.5-4.6a1 1 0 00-.6-.2c-1.8-.3-2.6-1.6-3.8-.7-.9.6-1.9.2-2.2-.8 0-.4-.3-.7-.9-.9-.5-.1-.7-.7-.5-1.2.2-.6-1.1-.5-1.8-.4-.2 0 .5-.8.2-.6-.8.4-1.8-.4-1.8-1.4 0-1 .3-.9 2-1 1.7-1 2.6-.3 2.5 1.8 1.1.1 1.5-.4 1.2-1.5-.1-.4 0-.7.2-1 2-2.7 3.8-3.8 6.9-5 .5 0 .8-.6.6-1.1-.5-1.9-1.2-4.8-2.6-5-.3 0-.7-.4-.8-.7-.5-1-.8-1.5-1.7-1.8a1 1 0 00-1.4 1c0 2.2 0 4-2.4 1.6-2-2-2.7-3.2-1.5-3.7v-.4c-4.8-.6-9.4.4-13.4 2.4 0 0-.1.2 0 .2a12 12 0 011.6 7.8l.1.5c1.4 3 3.1 7.9 6.1 9 1.5.6 2.8.4 4.2 1z"/></svg>