<svg xmlns="http://www.w3.org/2000/svg" viewBox="0 0 58 58"><path fill="#cbb292" d="M3.8 31c3.5 0 7-1 10-2.8C16.1 26.8 19 26 22 26s5.9.8 8.2 2.2c3 1.8 6.5 2.8 10 2.8H58a29.3 29.3 0 000-4H39a1 1 0 110-2h18.7l-.8-4H27a1 1 0 110-2h29.2c-.5-1.4-1.1-2.8-1.9-4a1 1 0 01-.4 0H48a1 1 0 110-2h5.2A29 29 0 009 8h8a1 1 0 110 2H8a1 1 0 01-.6-.3c-1 1-1.8 2.2-2.6 3.4H10a1 1 0 110 2H4.1a1 1 0 01-.4-.2C3 16 2.6 17 2.2 18h5.7a1 1 0 110 2H2a1 1 0 01-.5-.2 29 29 0 00-.9 3.3H14a1 1 0 110 2H.4.3a29.2 29.2 0 00-.2 6V31h3.7z"/><path fill="#fbd490" d="M30.2 43.8C27.9 45.2 25 46 22 46s-5.9-.8-8.2-2.2c-3-1.8-6.5-2.8-10-2.8H2.6A29 29 0 005 45.3l.7-.2c2 .3 3.8 1 5.5 2C14.3 49 18 50 22 50s7.7-1 10.8-3c2.2-1.3 4.8-2 7.4-2h12.3c.2 0 .4 0 .6.2a29 29 0 002.3-4.2H40.2c-3.5 0-7 1-10 2.8z"/><path fill="#d6bfa5" d="M29.1 29.9c-2-1.3-4.4-1.9-7.1-1.9s-5.1.6-7.1 1.9c-3.3 2-7.2 3.1-11.1 3.1H.3c.3 2.1.8 4.1 1.5 6h2c4 0 7.8 1 11 3.1 2 1.3 4.5 1.9 7.2 1.9s5.1-.6 7.1-1.9c3.3-2 7.2-3.1 11.1-3.1h16c.7-1.9 1.2-3.9 1.5-6H40.2c-4 0-7.8-1-11-3.1z"/><circle cx="22" cy="26" r="19" fill="#d6bfa5"/><path fill="#cbb292" d="M33.8 48.8c-3.4 2-7.5 3.2-11.8 3.2s-8.4-1.1-11.8-3.2a12 12 0 00-3.7-1.5A29 29 0 0043.7 54H34a1 1 0 110-2h11.1c.4 0 .7.2.9.5 2.1-1.6 4-3.4 5.7-5.5H40.2c-2.2 0-4.5.6-6.4 1.8z"/><circle cx="19" cy="23" r="12" fill="#e5c5a5"/><path fill="#af8066" d="M40.2 45c-2.6 0-5.2.7-7.4 2-3.1 2-6.8 3-10.8 3s-7.7-1-10.8-3a14 14 0 00-5.5-1.9 1 1 0 00-.7.2l1.5 2c1.3.3 2.5.8 3.7 1.5 3.4 2 7.5 3.2 11.8 3.2s8.4-1.1 11.8-3.2c2-1.2 4.2-1.8 6.4-1.8h11.5l1.4-1.8a1 1 0 00-.6-.2H40.2zM57.8 31H40.2c-3.5 0-7-1-10-2.8C27.9 26.8 25 26 22 26s-5.9.8-8.2 2.2c-3 1.8-6.5 2.8-10 2.8H.2 0c0 .7 0 1.3.2 2h3.5c4 0 7.8-1 11-3.1 2-1.3 4.5-1.9 7.2-1.9s5.1.6 7.1 1.9c3.3 2 7.2 3.1 11.1 3.1h17.5l.2-2z"/><path fill="#af8066" d="M40.2 39c-4 0-7.8 1-11 3.1-2 1.3-4.5 1.9-7.2 1.9s-5.1-.6-7.1-1.9c-3.3-2-7.2-3.1-11.1-3.1H2.2a1 1 0 00-.4 0l.8 2h1.2c3.5 0 7 1 10 2.8C16.1 45.2 19 46 22 46s5.9-.8 8.2-2.2c3-1.8 6.5-2.8 10-2.8h15.2l.8-2a1 1 0 00-.4 0H40.2zM45.1 52H34a1 1 0 100 2h9.7l2.3-1.5a1 1 0 00-.9-.5zM38 26c0 .6.4 1 1 1H57.9c0-.7 0-1.3-.2-2H39a1 1 0 00-1 1zM26 20c0 .6.4 1 1 1H56.9l-.7-2H27a1 1 0 00-1 1zM14 25a1 1 0 100-2H.6a29 29 0 00-.3 2H14zM47 14c0 .6.4 1 1 1H54.3l-1-2H48a1 1 0 00-1 1zM10 15a1 1 0 100-2H4.8l-1.1 2H10zM7.9 20a1 1 0 100-2H2.2a29 29 0 00-.7 1.8l.5.2h5.9zM17 10a1 1 0 100-2H9a29 29 0 00-1.6 1.7c.1.2.4.3.6.3h9z"/><path fill="#fbd490" d="M41.4 10H39v-.1a2 2 0 001.4-2.2c-.2-1-1.1-1.7-2.1-1.7h-4.9c-1 0-2 .9-2 2h-2.9c-1 0-2 .7-2 1.7a2 2 0 001.3 2.2v.1h-3.3c-1 0-2 .7-2 1.7a2 2 0 001.9 2.3h10c1 0 2-.9 2-2h5a2 2 0 002-2.3c-.2-1-1.1-1.7-2.1-1.7zM22 41c-4.3 0-8-2.3-8-5s3.7-5 8-5 8 2.3 8 5-3.7 5-8 5z"/><circle cx="4" cy="4" r="1" fill="#f3d55b"/><circle cx="18" cy="19" r="1" fill="#f3d55b"/><circle cx="21" cy="23" r="1" fill="#f3d55b"/><circle cx="40" cy="36" r="1" fill="#f3d55b"/><circle cx="7" cy="55" r="1" fill="#f3d55b"/><circle cx="2" cy="48" r="1" fill="#f3d55b"/><circle cx="13" cy="1" r="1" fill="#f3d55b"/><circle cx="47" cy="11" r="1" fill="#f3d55b"/><circle cx="55" cy="54" r="1" fill="#f3d55b"/></svg>