<svg xmlns="http://www.w3.org/2000/svg" viewBox="0 0 58 58"><path fill="#c68630" d="M41.6 29c0-.6.5-1 1-1H58c-.1-3.2-.7-6.2-1.8-9a1 1 0 01-.4 0H31.3a1 1 0 010-2h24.1c-.7-1.6-1.6-3-2.6-4.5a1 1 0 01-.8.5H42a1 1 0 010-2h9.7a29 29 0 00-49.1 6h22a1 1 0 010 2H2.3a1 1 0 01-.4 0C.8 21.7.1 24.7 0 28h8.7a1 1 0 010 2H0c.1 3.6 1 7 2.2 10h20.7a1 1 0 010 2H3.1c1.8 3.6 4.4 6.8 7.5 9.4.2-.2.4-.4.7-.4h21.5a1 1 0 010 2h-20a28.9 28.9 0 0032.5 0h-6.1a1 1 0 010-2h7.5c.3 0 .5.2.7.4 3.1-2.6 5.7-5.8 7.5-9.4H29.2a1 1 0 010-2H55.8c1.3-3 2-6.4 2.2-10H42.6a1 1 0 01-1-1z"/><circle cx="23.5" cy="25.5" r="20.5" fill="#dc9628"/><circle cx="21" cy="24" r="12" fill="#eeaf4b"/><path fill="#fac176" d="M29.2 40a1 1 0 000 2h25.7l.9-2a1 1 0 00-.4 0H29.2z"/><path fill="#f18d46" d="M24 41c0-.6-.5-1-1-1H2.5a1 1 0 00-.4 0l.9 2h19.8c.6 0 1-.4 1-1z"/><path fill="#f3d55b" d="M9.7 29c0-.6-.4-1-1-1H0v2h8.7c.6 0 1-.4 1-1z"/><path fill="#f09372" d="M41 12c0 .6.4 1 1 1h10c.4 0 .7-.2.8-.5l-1-1.5H42a1 1 0 00-1 1z"/><path fill="#f29c1f" d="M58 28H42.6a1 1 0 000 2H58v-1-1z"/><path fill="#fac176" d="M33.8 52c0-.6-.4-1-1-1H11.3a1 1 0 00-.7.4l2.1 1.6h20.1c.6 0 1-.4 1-1z"/><path fill="#f18d46" d="M46.7 51h-7.5a1 1 0 000 2h6l2.2-1.6a1 1 0 00-.7-.4z"/><path fill="#fac176" d="M30.3 18c0 .6.4 1 1 1h24.9l-.8-2H31.3a1 1 0 00-1 1z"/><path fill="#f3d55b" d="M24.7 19a1 1 0 000-2H2.6l-.8 2h22.9z"/><g fill="#f3d55b"><circle cx="4" cy="4" r="1"/><circle cx="7" cy="55" r="1"/><circle cx="2" cy="48" r="1"/><circle cx="13" cy="1" r="1"/><circle cx="53" cy="4" r="1"/></g><path fill="#f3d55b" d="M35.6 28H15.3a1 1 0 000 2h20.3a1 1 0 100-2z"/><path fill="#f0c419" d="M42 34H21.7a1 1 0 000 2H42a1 1 0 000-2z"/><path fill="#fac176" d="M36.3 47H16a1 1 0 010-2h20.3a1 1 0 010 2z"/><path fill="#f3d55b" d="M34 24H24a1 1 0 010-2h10a1 1 0 010 2z"/><path fill="#f0c419" d="M15 22H5a1 1 0 000 2h10a1 1 0 000-2z"/><path fill="#f3d55b" d="M33 13H23a1 1 0 010-2h10a1 1 0 010 2zM26.6 7H16.2a1 1 0 010-2h10.4a1 1 0 010 2zM41.9 7h-8.3a1 1 0 010-2h8.3a1 1 0 010 2z"/></svg>