<svg xmlns="http://www.w3.org/2000/svg" viewBox="0 0 58.01 58.01"><g fill="#5e5f62"><path d="M57.24 22.48l-13.9 3.72-.51-1.93 13.9-3.73a28.86 28.86 0 00-4.01-8.24L30.6 18.22l-.52-1.93 21.31-5.7a29.08 29.08 0 00-9.85-7.72L5.1 12.64a29.06 29.06 0 00-4.68 11.6l4.18-1.12.51 1.94-4.97 1.33c-.27 3-.08 6.07.63 9.15l35.82-9.6.51 1.93-35.8 9.6c.38 1.26.83 2.5 1.37 3.67 2.76-.45 4.17 2.91 2.77 4.77.16.23.34.44.51.66L21.2 42.5l.52 1.93-14.37 3.85a29.09 29.09 0 009.13 6.87l22.23-5.96.51 1.94-19.7 5.28a28.84 28.84 0 0017 .62 28.86 28.86 0 0014.42-9.04L44.5 49.7 44 47.77l8.95-2.4.45-.66c-.84-1.54-.5-3.78 1.69-4.37.23-.06.45-.09.66-.1a29.1 29.1 0 001.65-5.38l-6.27 1.68-.52-1.93 7.15-1.92c.43-3.32.28-6.77-.51-10.21zM21.5 1a29.1 29.1 0 00-5.3 1.99 2.72 2.72 0 01-2.1 2.89c-.88.23-1.62.08-2.21-.28a28.95 28.95 0 00-4.8 4.44L38.51 1.6A28.87 28.87 0 0021.5.99z"/></g><circle cx="24.5" cy="27.5" r="20.5" fill="#77797f"/><circle cx="20.5" cy="26.5" r="11.5" fill="#868c9b"/><circle cx="2.01" cy="2.56" r="1" fill="#f3d55b"/><circle cx="10.01" cy="56.56" r="1" fill="#f3d55b"/><circle cx="55.01" cy="51.56" r="1" fill="#f3d55b"/><circle cx="2.01" cy="54.56" r="1" fill="#f3d55b"/><circle cx="6.3" cy="6.1" r="1" fill="#f3d55b"/><circle cx="52.01" cy="3.56" r="1" fill="#f3d55b"/><g fill="#7684a3"><path d="M51.54 34.36l-.01-.18c-.24-1.76-1.6-3.54-3.79-3.54-.35 0-.72.05-1.09.14a3.76 3.76 0 00-2.82 4.27c.05.43.18.87.37 1.27l-16.12 4.32a3.7 3.7 0 00-4.42-1.97 3.72 3.72 0 00-2.84 3.92L5.95 46.57c.45.59.91 1.15 1.4 1.7l14.03-3.76a3.67 3.67 0 004.33 1.82 3.71 3.71 0 002.85-3.75l17.08-4.57c.55.36 1.2.58 1.97.58.36 0 .73-.05 1.1-.14 1.2-.33 1.98-1.05 2.42-1.91l6.26-1.68c.14-.72.27-1.44.36-2.17l-6.21 1.67zM25.19 44.4c-1.37.37-2.24-.7-2.37-1.73-.05-.38-.1-1.68 1.36-2.07.2-.05.39-.08.57-.08 1.08 0 1.69.94 1.8 1.8.05.4.1 1.69-1.36 2.08zm23-7.89c-1.37.37-2.25-.7-2.38-1.72-.05-.4-.1-1.68 1.36-2.07.2-.06.4-.09.57-.09 1.08 0 1.69.94 1.8 1.81.06.39.1 1.68-1.35 2.07zM38.52 1.61L7.08 10.03c-.71.83-1.36 1.7-1.98 2.6l36.45-9.76c-.98-.48-2-.9-3.03-1.26zM8.04 27.11c.36 0 .73-.05 1.1-.15a3.71 3.71 0 002.85-3.75l11.72-3.14a3.73 3.73 0 004.5 2.12 3.74 3.74 0 002.84-4.08l21.67-5.81c-.42-.6-.86-1.16-1.32-1.72l-20.99 5.63a3.65 3.65 0 00-4.25-1.68 3.7 3.7 0 00-2.85 3.58l-11.8 3.16a3.7 3.7 0 00-4.43-1.97 3.72 3.72 0 00-2.84 3.92L.4 24.24c-.11.71-.2 1.43-.27 2.15l4.66-1.25a3.67 3.67 0 003.24 1.97zm18.64-10.64c.2-.06.4-.09.58-.09 1.07 0 1.68.94 1.8 1.81.05.39.1 1.68-1.36 2.07-1.37.37-2.24-.7-2.38-1.72-.05-.4-.1-1.68 1.36-2.07zM7.6 21.23c.2-.05.4-.08.57-.08 1.08 0 1.69.94 1.8 1.81.06.39.1 1.68-1.35 2.07-1.38.37-2.25-.7-2.38-1.73-.05-.38-.1-1.68 1.36-2.07zM44.96 47.33c-.24-1.76-1.6-3.55-3.79-3.55-.36 0-.72.05-1.1.15a3.76 3.76 0 00-2.81 4.27c.05.43.18.86.37 1.27l-21.15 5.67c.99.47 2 .9 3.04 1.26l19.55-5.24c.55.36 1.2.58 1.97.58.36 0 .73-.05 1.1-.14 1.2-.33 1.99-1.06 2.42-1.91l6.38-1.71c.72-.83 1.38-1.7 2-2.61l-7.97 2.14-.01-.18zm-3.34 2.33c-1.37.37-2.25-.7-2.38-1.72-.05-.4-.1-1.68 1.36-2.08.2-.05.39-.08.57-.08 1.08 0 1.69.94 1.8 1.81.05.39.1 1.68-1.35 2.07zM39.78 30c.36 0 .73-.06 1.1-.16a3.7 3.7 0 002.85-3.74l13.5-3.62c-.07-.33-.12-.65-.21-.98l-.29-.96-13.48 3.62a3.7 3.7 0 00-4.43-1.98 3.72 3.72 0 00-2.84 3.92L.78 35.54c.07.32.13.65.21.97l.3.96 35.25-9.45A3.67 3.67 0 0039.78 30zm-.44-5.89c.2-.05.4-.08.58-.08 1.07 0 1.68.94 1.8 1.81.05.39.1 1.68-1.36 2.07-1.37.37-2.24-.7-2.38-1.72-.05-.39-.1-1.68 1.36-2.08z"/></g></svg>