<svg xmlns="http://www.w3.org/2000/svg" viewBox="0 0 57 57"><circle cx="27" cy="34" r="23" fill="#a5a5a4"/><path fill="none" stroke="#8697cb" stroke-miterlimit="10" stroke-width="2" d="M27 11V1"/><path fill="#48a0dc" d="M28 1h8v6h-8z"/><circle cx="36.5" cy="31.5" r="5.5" fill="#d1d4d1"/><path fill="#5e5f62" d="M5.5 25.7A6.5 6.5 0 0017 21.5c0-2.6-1.6-4.9-3.8-6a23 23 0 00-7.7 10.2z"/><path fill="#bdc3c7" d="M18.5 45a6.5 6.5 0 00-6.5 6.4 23 23 0 0010.6 5.2A6.5 6.5 0 0018.5 45z"/><circle cx="9" cy="7" r="1" fill="#f18d46"/><circle cx="2" cy="50" r="1" fill="#f18d46"/><circle cx="50" cy="55" r="1" fill="#f18d46"/><g fill="#f3d55b"><circle cx="19" cy="35" r="1"/><circle cx="26" cy="28" r="1"/><circle cx="12" cy="41" r="1"/><circle cx="8" cy="34" r="1"/><circle cx="31" cy="49" r="1"/><circle cx="37" cy="21" r="1"/><circle cx="21" cy="16" r="1"/><circle cx="28" cy="19" r="1"/><circle cx="39" cy="46" r="1"/></g><path fill="#f3d55b" d="M55 5h-1.6L51 2.6V1a1 1 0 10-2 0v1.6L46.6 5H45a1 1 0 100 2h1.6L49 9.4V11a1 1 0 102 0V9.4L53.4 7H55a1 1 0 100-2z"/></svg>