<svg xmlns="http://www.w3.org/2000/svg" viewBox="0 0 56 56"><circle cx="27.5" cy="31" r="24" fill="#8697cb"/><circle cx="25" cy="29.5" r="18.5" fill="#92a8dd"/><circle cx="20.5" cy="27" r="11" fill="#a4b9ed"/><path fill="#f3d55b" d="M54.5 5h-1.6l-2.4-2.4V1a1 1 0 10-2 0v1.6L46.1 5h-1.6a1 1 0 100 2h1.6l2.4 2.4V11a1 1 0 102 0V9.4L52.9 7h1.6a1 1 0 100-2z"/><circle cx="6.5" cy="6" r="1" fill="#f3d55b"/><circle cx="53.5" cy="21" r="1" fill="#f3d55b"/><circle cx="41.5" cy="3" r="1" fill="#f3d55b"/><circle cx="32.5" cy="13" r="1" fill="#f3d55b"/><circle cx="35.5" cy="46" r="1" fill="#f3d55b"/><circle cx="3.5" cy="55" r="1" fill="#f3d55b"/><circle cx="1.5" cy="44" r="1" fill="#f3d55b"/><path fill="#556080" d="M33 23.4c-2.5 0-4-1.5-4.5-3.4-.2-1-1.4-1.7-2.3-1.1a7 7 0 1010.3 6c0-1.2-1-2-2.1-1.6a5 5 0 01-1.4.1zM8.6 16.2a4.5 4.5 0 105.4-5c-2 1.3-3.9 3-5.4 5z"/><path fill="none" stroke="#556080" stroke-linecap="round" stroke-miterlimit="10" stroke-width="2" d="M45 22.2a3 3 0 01-4-1.4M27.5 11a3 3 0 01-3 3M23.5 36a3 3 0 01-3 3M40.2 31.5a3 3 0 011.6 4M10.6 31a3 3 0 011.7 4"/></svg>