<svg xmlns="http://www.w3.org/2000/svg" viewBox="0 0 291 291"><circle cx="145.3" cy="145.3" r="145.3" fill="#f9ba48"/><path fill="#333" d="M117 234h23v9h-23zM103 248h19v9h-19zM75 220h9v9h-9zM159 262h14v9h-14zM220 234h19v9h-19zM122 206h14v9h-14zM113 178h14v9h-14zM150 150h19v9h-19zM187 169h19v9h-19zM216 178h14v9h-14zM225 155h23v9h-23zM253 141h14v9h-14zM127 159h19v9h-19zM94 216h19v9H94zM136 248h19v9h-19zM47 192h19v9H47zM28 164h19v9H28zM23 127h14v9H23zM75 197h9v9h-9zM89 234h19v9H89zM113 192h9v9h-9zM192 253h14v9h-14zM136 267h14v9h-14zM89 169h19v9H89zM220 136h19v9h-19zM248 103h14v9h-14zM33 94h14v9H33zM47 150h14v9H47zM122 220h9v9h-9zM103 262h14v9h-14zM108 150h9v9h-9zM178 141h14v9h-14zM178 159h9v9h-9zM66 234h14v9H66zM47 220h19v9H47zM94 202h9v9h-9zM80 248h9v9h-9zM38 206h19v9H38zM66 206h9v9h-9zM47 178h9v9h-9zM103 122h19v9h-19zM14 145h14v9H14zM42 70h14v9H42zM239 75h14v9h-14zM66 173h14v9H66zM28 187h9v9h-9z"/></svg>