<svg xmlns="http://www.w3.org/2000/svg" viewBox="0 0 57.6 57.6"><circle cx="29.5" cy="28.1" r="20.5" fill="#f9c38a"/><circle cx="26.5" cy="25.1" r="14.5" fill="#ffd199"/><circle cx="23.5" cy="21.1" r="7.5" fill="#ffd8ae"/><path fill="#f3d55b" d="M12 7.6h-1.6L8 5.2V3.6a1 1 0 10-2 0v1.6L3.6 7.6H2a1 1 0 100 2h1.6L6 12v1.6a1 1 0 102 0V12l2.4-2.4H12a1 1 0 100-2z"/><circle cx="50" cy="54.6" r="1" fill="#f3d55b"/><circle cx="55" cy="34.6" r="1" fill="#f3d55b"/><circle cx="5" cy="23.6" r="1" fill="#f3d55b"/><circle cx="24" cy="24.6" r="1" fill="#f3d55b"/><circle cx="31" cy="55.6" r="1" fill="#f3d55b"/><path fill="#f9eab0" d="M35 9zM35 8.9zM57.4.2C56.1-1 49.5 3.3 40.6 11l1.7 1.3c6-5 10.2-8.1 12.4-9.3-2 3.8-9.6 13.9-23.8 28S6.7 52.7 3 54.7c1.3-2.4 4.7-7.2 10.5-13.9l-1.2-1.7C3.8 48.7-1 56.1.2 57.4c2 2 16.4-9.3 32.1-25C48.1 16.5 59.3 2.1 57.4.1z"/></svg>