<svg xmlns="http://www.w3.org/2000/svg" viewBox="0 0 60 60"><circle cx="30" cy="30" r="22.1" fill="#f3d55b"/><circle cx="30" cy="30" r="17.1" fill="#f0c419"/><circle cx="30" cy="30" r="10" fill="#eda71b"/><g fill="#f0c419"><path d="M30 8a1 1 0 00-1 1v2a1 1 0 102 0V9a1 1 0 00-1-1zM30 48a1 1 0 00-1 1v2a1 1 0 102 0v-2a1 1 0 00-1-1zM51 29h-2a1 1 0 100 2h2a1 1 0 100-2zM12 30a1 1 0 00-1-1H9a1 1 0 100 2h2a1 1 0 001-1zM44.14 14.44l-1.41 1.42a1 1 0 001.41 1.41l1.42-1.41a1 1 0 00-1.42-1.42zM15.86 42.73l-1.42 1.41a1 1 0 001.42 1.42l1.41-1.42a1 1 0 00-1.41-1.41zM44.14 42.73a1 1 0 00-1.41 1.41l1.41 1.42a1 1 0 001.42 0 1 1 0 000-1.42l-1.42-1.41zM15.86 14.44a1 1 0 00-1.42 1.42l1.42 1.41a1 1 0 001.41 0 1 1 0 000-1.41l-1.41-1.42zM38.6 9.75a1 1 0 00-1.32.53l-.78 1.84a1 1 0 101.84.78l.79-1.84a1 1 0 00-.53-1.31zM22.97 46.57a1 1 0 00-1.32.53l-.78 1.84a1 1 0 101.85.78l.78-1.84a1 1 0 00-.53-1.31zM49.72 37.28l-1.84-.78a1 1 0 00-.78 1.84l1.84.79a1 1 0 10.78-1.85zM12.9 21.66l-1.84-.79a1 1 0 00-.78 1.84l1.84.79a1 1 0 10.78-1.84zM47.62 23.72c.12 0 .25-.02.37-.07l1.85-.75a1 1 0 00-.75-1.86l-1.85.75a1 1 0 00.38 1.93zM12 36.03l-1.84.75a1 1 0 00.75 1.85l1.85-.75a1 1 0 00-.75-1.85zM38.04 47.08a1 1 0 00-1.85.75l.75 1.86a1 1 0 101.85-.75l-.75-1.86zM23.06 10a1 1 0 00-1.85.74l.75 1.86a1 1 0 101.85-.75l-.75-1.86z"/></g><g fill="#eda71b"><path d="M30 14a.94.94 0 00-.94.94v1.88a.94.94 0 101.88 0v-1.88A.94.94 0 0030 14zM30 42.23a.94.94 0 00-.94.95v1.88a.94.94 0 101.88 0v-1.88a.94.94 0 00-.94-.95zM45.06 29.06h-1.88a.94.94 0 100 1.88h1.88a.94.94 0 100-1.88zM17.77 30a.94.94 0 00-.95-.94h-1.88a.94.94 0 100 1.88h1.88c.52 0 .95-.42.95-.94zM39.32 21.62c.24 0 .48-.09.66-.27l1.33-1.33a.94.94 0 10-1.33-1.33l-1.33 1.33a.94.94 0 00.67 1.6zM20.02 38.65l-1.33 1.33a.94.94 0 101.33 1.33l1.33-1.33a.94.94 0 10-1.33-1.33zM39.98 38.65a.94.94 0 10-1.33 1.33l1.33 1.33a.94.94 0 001.33 0 .94.94 0 000-1.33l-1.33-1.33zM20.02 18.69a.94.94 0 10-1.33 1.33l1.33 1.33a.94.94 0 001.33 0 .94.94 0 000-1.33l-1.33-1.33zM36.25 15.27a.94.94 0 00-1.23.5l-.74 1.73a.94.94 0 101.74.74l.73-1.73a.94.94 0 00-.5-1.24zM25.22 41.26a.94.94 0 00-1.23.5l-.74 1.74a.94.94 0 101.73.73l.74-1.73a.94.94 0 00-.5-1.24zM44.23 35.02l-1.73-.74a.94.94 0 00-.74 1.74l1.74.73c.11.05.24.08.36.08a.94.94 0 00.37-1.81zM15.77 24.98l1.73.74a.94.94 0 00.74-1.73l-1.73-.74a.94.94 0 00-.74 1.73zM41.34 25.27a.94.94 0 001.23.52l1.75-.7a.94.94 0 00-.71-1.75l-1.75.7a.94.94 0 00-.52 1.23zM18.66 34.43a.94.94 0 00-1.23-.52l-1.75.7a.94.94 0 00.71 1.75l1.75-.7c.48-.2.71-.75.52-1.23zM35.8 41.71a.94.94 0 10-1.74.7l.71 1.75a.94.94 0 101.74-.7l-.7-1.75zM25.23 15.53a.94.94 0 10-1.74.7l.7 1.76a.94.94 0 101.75-.71l-.7-1.75z"/></g><g fill="#f3d55b"><path d="M30 0a1 1 0 00-1 1v5a1 1 0 102 0V1a1 1 0 00-1-1zM30 53a1 1 0 00-1 1v5a1 1 0 102 0v-5a1 1 0 00-1-1zM59 29h-5a1 1 0 100 2h5a1 1 0 100-2zM7 30a1 1 0 00-1-1H1a1 1 0 100 2h5a1 1 0 001-1zM46.97 14.03a1 1 0 00.7-.3l3.54-3.53A1 1 0 1049.8 8.8l-3.54 3.53a1 1 0 00.71 1.7zM12.32 46.26L8.8 49.8a1 1 0 101.41 1.41l3.54-3.53a1 1 0 10-1.42-1.42zM47.68 46.26a1 1 0 10-1.42 1.42l3.54 3.53a1 1 0 001.41 0 1 1 0 000-1.41l-3.53-3.54zM10.2 8.79A1 1 0 108.8 10.2l3.53 3.54a1 1 0 001.42 0 1 1 0 000-1.42L10.2 8.8zM41.72 2.38a1 1 0 00-1.31.53l-1.95 4.6a1 1 0 101.84.79l1.95-4.6a1 1 0 00-.53-1.32zM21.01 51.17a1 1 0 00-1.3.53l-1.96 4.6a1 1 0 101.84.79l1.95-4.6a1 1 0 00-.53-1.32zM57.09 40.41l-4.6-1.95a1 1 0 10-.78 1.84l4.6 1.95a1 1 0 10.77-1.84zM2.92 19.59l4.6 1.95a1 1 0 10.78-1.84l-4.6-1.95a1 1 0 10-.78 1.84zM51.33 21.22a1 1 0 001.3.56l4.63-1.88a1 1 0 00-.75-1.85l-4.63 1.87a1 1 0 00-.55 1.3zM8.68 38.46a1 1 0 00-1.3-.56l-4.64 1.88a1 1 0 00.75 1.85l4.63-1.87a1 1 0 00.56-1.3zM39.92 51.72a1 1 0 00-1.86.75l1.88 4.63a1 1 0 101.85-.75l-1.87-4.63zM20.06 2.58a1 1 0 10-1.85.75l1.87 4.63a1 1 0 101.86-.75l-1.88-4.63z"/></g></svg>