<svg xmlns="http://www.w3.org/2000/svg" viewBox="0 0 59.5 59.5"><circle cx="30.3" cy="29.6" r="23" fill="#9fbdc2"/><circle cx="26" cy="27.8" r="18.2" fill="#9fcacc"/><circle cx="23" cy="26.3" r="14.7" fill="#add7db"/><path fill="#f3d55b" d="M53.3 51.6h-3l-1-1v-3a1 1 0 00-2 0v3l-1 1h-3a1 1 0 000 2h3l1 1v3a1 1 0 002 0v-3l1-1h3a1 1 0 000-2z"/><circle cx="5.3" cy="4.6" r="1" fill="#f3d55b"/><circle cx="8.3" cy="55.6" r="1" fill="#f3d55b"/><circle cx="3.3" cy="48.6" r="1" fill="#ecf0f1"/><circle cx="14.3" cy="1.6" r="1" fill="#f3d55b"/><circle cx="54.3" cy="4.6" r="1" fill="#f3d55b"/><circle cx="56.3" cy="52.6" r="1" fill="#f3d55b"/><circle cx="44.8" cy="39.9" r="1" fill="#f3d55b"/><circle cx="14.3" cy="26.3" r="1" fill="#f3d55b"/><path fill="#ecf0f1" d="M29.8 52.6c-1.8 4-3.2 5-3.7 5-.7-.2-2-2-2.6-8.2-.5-5.5-.2-12.8.8-20.4 2.3-17 7-27.3 9.2-27 .5 0 1.5 1.3 2.2 5.2l2 .6v-.5c-.7-4.6-2-7-4-7.3-5.4-.7-9.8 16.8-11.4 28.8-1 7.7-1.3 15.1-.8 20.8.6 6.2 2 9.6 4.3 9.9h.3c2 0 3.8-2.1 5.7-6.5v-.5h-2z"/></svg>