<svg xmlns="http://www.w3.org/2000/svg" viewBox="0 0 56 56"><circle cx="27" cy="30.5" r="24" fill="#d75a4a"/><path fill="#f3d55b" d="M55 5.5h-1.6L51 3.1V1.5a1 1 0 10-2 0v1.6l-2.4 2.4H45a1 1 0 100 2h1.6L49 9.9v1.6a1 1 0 102 0V9.9l2.4-2.4H55a1 1 0 100-2z"/><circle cx="6" cy="9.5" r="1" fill="#f3d55b"/><circle cx="25" cy="12.5" r="1" fill="#f3d55b"/><circle cx="53" cy="17.5" r="1" fill="#f3d55b"/><circle cx="36" cy="5.5" r="1" fill="#f3d55b"/><circle cx="35" cy="45.5" r="1" fill="#f3d55b"/><circle cx="3" cy="54.5" r="1" fill="#f3d55b"/><circle cx="1" cy="43.5" r="1" fill="#f3d55b"/><path fill="#e57e25" d="M49 20.8a24 24 0 00-3.6-5.7c-7 1-21.4 3.4-21.4 3.4l25 2.3zM48.2 41.8c1-1.8 1.7-3.8 2.2-5.9L18 39.5l30.2 2.3zM3.4 26.4A24.1 24.1 0 003 32L24 29.5s-12.6-2-20.6-3.1z"/><circle cx="44" cy="54.5" r="1" fill="#f3d55b"/><circle cx="53" cy="42.5" r="1" fill="#f3d55b"/><circle cx="1" cy="4.5" r="1" fill="#f3d55b"/><circle cx="12" cy="2.5" r="1" fill="#f3d55b"/></svg>