<svg version="1" xmlns="http://www.w3.org/2000/svg" width="933.333" height="933.333" viewBox="0 0 700.000000 700.000000"><path d="M144.8.5c-.2.2-3 .6-6.3.9-7.7.9-24.3 4.8-33.1 7.9C56.9 26.3 18.3 68.4 5.5 118 1.3 134.4.6 140 .6 157c-.1 12.7.6 23.3 1.8 29 2.8 13 6.3 25.1 9.8 33 4.4 10 5.3 11.8 9.1 18.5 8.8 15.5 25.4 34.7 38.7 45 11 8.4 21.2 14.5 24.4 14.5 6.3 0 11.9-5.8 11-11.4-.8-5.5-1.8-6.6-11.6-13.2-11.6-7.7-28.7-24.2-36-34.4-11.3-16.1-21-38.9-23.3-55-.4-2.4-.9-4.9-1.2-5.3-1-1.6-1.1-28.4-.1-34.4.4-3.2 1.1-7.4 1.3-9.3 2.4-16 10.3-35.3 21.3-52 6.5-9.8 22.5-26.4 32.7-33.8 17.3-12.7 42.7-22.7 63.1-24.9 28-3 53.7 1.4 77.5 13.2 31.4 15.6 56.5 43.9 67.9 76.8 2.9 8.3 6.4 11.7 12 11.7 5 0 9.7-3.8 10.6-8.5.8-4.4-2.3-13.8-9.1-27.7-16.3-32.8-43.1-59.1-76-74.3-8.1-3.8-24.2-9.3-29.4-10.1-2-.3-3.9-.8-4.2-1-.4-.2-2.4-.6-4.5-1-2.2-.3-5-.8-6.4-1-2.7-.6-34.7-1.4-35.2-.9zM613.5 2.2c-19.3 4.5-36 17.7-45.5 35.9-5.2 10.1-7.1 17.3-7.5 29.4-1.2 32.5 18 59.2 50.1 69.6 9.2 3 28.8 3.3 37.8.6 25.7-7.9 44.1-27.5 50-53.4 1.8-8.2 1.4-24.9-.9-32.8-10.6-36.5-47.2-58-84-49.3zm31.7 22.7c19.9 6.9 32.3 24.6 32.1 45.6-.3 26.7-20.1 46.5-46.8 46.8-21 .2-38.5-12.1-45.7-32.1-2.8-7.8-2.8-22.4 0-30.3 5.6-15.6 18.2-27.1 34.2-31.2 7.2-1.9 19.1-1.3 26.2 1.2zM391.3 44.8c-2.9.4-7.3 4.9-7.5 7.6 0 1.1-.2 2.8-.3 3.6-.3 2.8 2.3 6.4 9.4 13.5 3.9 3.8 7.1 7.4 7.1 7.9s-2.8 3.7-6.2 7c-8.9 8.6-9.9 10-10.4 13.9-.8 6.7 6.5 13.2 13.4 11.9 1.4-.3 6.4-4.2 11.2-8.8l8.6-8.3 8 8c10.4 10.5 15.3 11.8 21.3 5.8 5.9-5.9 4.8-10.2-5.4-20.8l-8.3-8.6 8.3-8.6c8.8-9.1 10.2-12.3 8-17.6-2.5-5.8-8.4-8.2-14.1-5.8-1.7.7-6.3 4.5-10.2 8.4-3.9 3.9-7.5 7.1-7.8 7.1-.4 0-4.5-3.6-9-8s-8.8-8-9.5-8.1c-.8 0-2.1-.2-2.9-.3-.8-.1-2.5 0-3.7.2z"/><path d="M139 61c-38.2 8-67.4 36.1-77.2 74.2-2.6 10.5-3.3 30-1.2 40.6 3.8 20.2 12.9 37.7 26.9 51.9l7.5 7.6 5.2-.5c4.1-.4 5.6-1.1 7.4-3.3 4.5-5.7 3.5-11.2-3.3-18-9.7-9.6-18.5-24.9-20.7-36.1-.3-1-.9-3.9-1.5-6.4-1.3-5.8-.6-25.1 1.2-31.5 9.2-32.5 35.4-54.7 68.2-58 10.9-1 12.3-1.5 14.9-4.6 4.3-5 3.2-13-2.2-16.1-3.7-2.1-14.6-2-25.2.2zM337.7 147.6c-.1.1-4.5.5-9.7.8-10.7.8-10.7.8-24.5 3-43.4 6.9-87.3 26.5-124.5 55.5-14.2 11.1-36.3 33.1-45.6 45.6-2.1 2.7-4.1 5.2-4.4 5.5-.4.3-3.8 5.2-7.7 11-24.8 36.8-40.5 78.6-45.4 121.3-1.4 11.6-1.1 11.1-8.4 12.2-22.2 3.1-39.7 13.7-51.2 31C7.7 446.4 4.5 457.4 4.6 474c.3 30.2 21 56.8 50.9 65.5 3.1 1 6.9 1.9 8.3 2.1 6.2.9 19.3.3 26.6-1.1 9-1.7 8.2-2.2 12.4 6.5 1.4 3 5.5 10.4 9 16.3 34.8 59 88.6 102.3 152.9 123.1 16.5 5.3 37.1 9.9 50.3 11.2 3.6.3 8.3.9 10.5 1.3 6.1 1.1 48.9.5 57.5-.8 4.1-.6 9.3-1.4 11.5-1.7 23.2-3.2 53.2-13 78.5-25.6 51.7-25.6 94.2-67 121.2-117.8 10.6-20 20.3-46.2 25.2-68 3.3-15 3.4-15.7 5.1-31.5.4-3.3 1-6.3 1.4-6.7.4-.4 4.5-1.5 9.1-2.3 16.3-3 27.6-8.5 38.4-18.6 30-28 29.5-75.2-1.1-102.8-16.2-14.6-37.4-20.4-60.5-16.7-5.4.9-10 1.6-10.2 1.6-.2 0-3.4-5.7-7.1-12.8-24.7-47-65.9-89.1-110-112.7-4.9-2.6-9.4-5.1-10-5.5-.5-.4-5.5-2.8-11.1-5.3-23.2-10.5-55.9-19.7-79.3-22.2l-10.3-1.1c-5-.6-35.5-1.3-36.1-.8zm34.1 22.8c12.2 1.2 15.6 1.7 28.2 4.2s32.7 7.9 34.5 9.4c.6.4 2.3 1 3.8 1.4 8.6 2.1 37.4 16.6 51.7 26.1 25.1 16.7 44.3 34.8 64.6 61 5.2 6.7 14.3 21.3 19.9 31.9 14 26.5 23.8 57.1 27 84.1 1.3 11 5.3 16.5 12 16.5 6.1 0 11.6-5.8 11-11.8-.4-3.9-1.6-13.2-2.1-15.6-.2-1.2-1-5.5-1.8-9.6-1.8-8.9-3.4-15.1-7.5-28.4-1.7-5.4-3.1-10-3.1-10.1 0-.2 1.7-.6 3.8-1 18.5-3.1 33.4 1.1 45.3 12.7 18.7 18.4 19 48.7.5 67.1-9.4 9.4-16.2 12.3-38.6 16.2-8 1.4-15.6 2.7-17 3-1.4.3-9 1.6-17 3s-15.7 2.8-17 3c-1.4.3-3.8.7-5.5 1-1.6.3-4.1.7-5.5 1-1.4.3-4.1.7-6 1-1.9.3-7.3 1.3-12 2.1-4.7.9-9.2 1.7-10 1.9-.8.1-3.5.6-6 1s-5.4.9-6.5 1.1c-2.2.4-24.4 4.3-28.5 5-2.3.4-33.3 5.9-39 6.9-1.4.3-5.2.9-8.5 1.5-3.3.5-7.1 1.2-8.5 1.5-1.4.3-3.8.7-5.5 1-1.6.3-4.1.7-5.5 1-1.4.3-4.1.7-6 1-2.9.5-16.1 2.9-22.2 4-.9.2-3.8.7-6.5 1-2.6.4-6.4 1.1-8.3 1.5-1.9.5-5.7 1.1-8.4 1.5-2.7.3-5.2.8-5.6 1-.3.2-2.6.6-5 1-2.5.3-5.2.8-6 1-.8.2-3.5.7-6 1-2.5.3-5.2.8-6 1-.8.2-3.1.7-5 1-1.9.3-8.4 1.5-14.5 2.5-6 1.1-12.6 2.2-14.5 2.5-1.9.3-6.9 1.2-11 2s-10.2 1.9-13.5 2.4c-3.3.6-7.3 1.3-9 1.6-5.2 1-14.9 2.7-17 3-1.1.1-8.7 1.5-17 2.9-24.9 4.4-64.8 11.5-68.5 12.1-1.9.3-12 2.1-22.5 4-10.4 1.8-20.3 3.5-22 3.8-9.2 1.5-39.6 6.9-42.9 7.7-5.8 1.3-21.4.5-26.6-1.4-23.7-8.7-36.9-32.9-30.9-56.6 5-19.6 20.6-33.3 41.6-36.5l4-.6.2 7.3c.2 11.3 1.1 20.2 3.2 34.3 2.4 16.3 4.2 22.5 7.3 25.4 3.2 3.1 9.6 3.3 13.3.5 4.2-3.2 5-7.8 3-18.7-3.8-20.9-4.6-29.3-4.7-49.2 0-13.4.3-18.1 2.1-32.5 9.6-78.2 57.3-148.8 127.4-188.8 23.7-13.5 56-24.9 82.5-29.2 4.1-.6 8.6-1.3 10-1.6 1.4-.2 7.2-.7 13-1 5.8-.4 10.6-.7 10.7-.8.5-.5 23.7.2 30.1.8zm230.8 282.4c-.2 1-.8 4.4-1.1 7.7-.4 3.2-.8 6.2-1 6.5-.2.3-.6 2.6-1 5-2.5 16.8-11.9 44.4-22.1 64.9-12.3 24.8-27.4 45.8-47.1 65.7C493 640 447.6 664 396 673.6c-28.5 5.2-62.8 5.4-89.5.4-2.7-.5-6.6-1.2-8.5-1.5-13.6-2.2-40.4-11.3-57.5-19.5-41.6-19.9-77.5-51.3-102.6-89.5-7.3-11-16.4-27.4-15.6-28.1.3-.4 10.5-2.5 18.6-3.9 7.2-1.2 27.2-4.7 39.6-6.9 7.7-1.3 15.6-2.7 17.5-3.1 1.9-.3 12.5-2.2 23.5-4.1 11-2 21.3-3.7 22.9-3.9 1.5-.3 3.5-.6 4.5-.9.9-.3 3.6-.8 6.1-1.1 2.5-.3 5.2-.8 6-1 .8-.2 3.1-.7 5-1 1.9-.3 8.5-1.5 14.5-2.5 6.1-1.1 12.8-2.2 15-2.6 2.2-.3 5.9-1 8.3-1.5 2.3-.5 5.9-1.2 8-1.5 4.2-.6 4.7-.7 19.7-3.4 16.9-3 28.7-5.1 32-5.6 1.7-.2 4.1-.6 5.5-.9 1.4-.3 3.9-.7 5.5-1 1.7-.3 4-.7 5.1-.9 1.2-.2 3.7-.7 5.5-1 3.1-.5 28.1-5 33.9-6 1.4-.3 6.8-1.2 12-2.1 12-2 13.9-2.4 17-3 2.4-.5 10.4-1.9 16.5-2.9 1.7-.3 4.1-.8 5.5-1 1.4-.3 4.1-.8 6-1 1.9-.3 4.6-.8 6-1 1.4-.3 7.9-1.5 14.5-2.6 6.6-1.2 13.1-2.3 14.5-2.6 1.4-.2 4-.7 5.9-1 1.8-.3 4.3-.8 5.5-1 1.1-.2 8.8-1.6 17.1-3 8.2-1.4 15.2-2.7 15.5-2.9.3-.2 2.8-.6 5.5-.9 2.8-.4 5.7-.9 6.5-1.1.8-.2 3.1-.6 5-.9 1.9-.3 5.8-1 8.7-1.5 2.9-.6 7.1-1.3 9.5-1.6 2.4-.4 5.9-1 7.8-1.4 4.2-.9 5.2-.5 4.6 1.7z"/><path d="M440.9 501.4c-.2.2-2.6.7-5.2 1-2.6.4-10.5 1.7-17.5 3-7 1.4-14.5 2.7-16.7 3-2.2.3-6.2 1.1-9 1.6-2.7.5-6.6 1.2-8.5 1.5-3 .5-24.8 4.4-33.5 6-1.6.3-4.6.8-6.5 1.1-1.9.3-8.2 1.4-14 2.4-5.8 1.1-12.1 2.2-14 2.5-21.6 3.8-23.2 4.3-25.6 8.1-3.7 5.5-1.8 13 4 15.8 3.2 1.6 5.3 1.4 21.8-1.4 9.5-1.7 10.6-1.9 27.8-4.9 9.1-1.7 23.3-4.2 31.5-5.6 8.3-1.4 16.4-2.9 18-3.2 1.7-.3 3.9-.7 5-.9 1.1-.1 6.1-1 11-1.9 5-.9 10.1-1.8 11.5-2 27.6-4.8 28.8-5.2 31.9-9.1 4.1-5.2 2.2-12.7-3.9-15.9-2.7-1.4-7.1-2-8.1-1.1zM251.4 535.5c-10.3 4.3-7.6 20 3.6 20.7 9.1.6 15.2-7.3 12-15.6-1.9-5.2-9.5-7.7-15.6-5.1zM582.3 192.6c-2.1.8-3.9 1.4-4 1.4-1 .1-3.3 6.6-3.3 9.4 0 9.6 15.2 13.7 21 5.7 6.4-9.1-2.8-20.3-13.7-16.5zM610.4 222.6c-3.9 1.9-5.8 5.4-5.7 10.1.2 5.3 3.1 8.6 8.6 9.7 8.1 1.6 14-2.8 14-10.4 0-8.6-8.7-13.5-16.9-9.4zM648.5 531.2c-6.6 2.3-9.5 8.4-7 14.4 3.6 8.6 16.8 9.4 20.7 1.1 4.4-9.3-4-18.8-13.7-15.5zM47.9 590.1C29.6 592.6 14 603.9 6 620.5c-4.8 10.1-6 15.7-5.5 27.1 1.2 30.2 26.3 53.1 56.9 52 14.7-.5 26.9-6 38-17.3 5.3-5.4 11.6-16.4 13.1-22.8.4-1.7.9-4.1 1.2-5.5.3-1.4.6-6 .6-10.2-.2-32.6-29.9-58.1-62.4-53.7zm18.6 23.6c4.8 1.5 12.3 7.3 15.8 12.4 15.5 22.6-1.7 53-29.2 51.4-28.9-1.7-41.3-38.3-19.5-57.4 9-7.9 20.8-10.2 32.9-6.4z"/></svg>