<?xml version="1.0" standalone="no"?>
<!DOCTYPE svg PUBLIC "-//W3C//DTD SVG 20010904//EN"
 "http://www.w3.org/TR/2001/REC-SVG-20010904/DTD/svg10.dtd">
<svg version="1.0" xmlns="http://www.w3.org/2000/svg"
 width="700.000000pt" height="700.000000pt" viewBox="0 0 700.000000 700.000000"
 preserveAspectRatio="xMidYMid meet">
<metadata>
Created by potrace 1.14, written by Peter Selinger 2001-2017
</metadata>
<g transform="translate(0.000000,700.000000) scale(0.100000,-0.100000)"
fill="#000000" stroke="none">
<path d="M635 6646 c-116 -37 -207 -116 -258 -224 l-32 -67 -3 -447 -3 -448
601 0 600 0 0 600 0 600 -432 -1 c-321 0 -443 -4 -473 -13z m715 -581 l0 -415
-416 0 -416 0 4 328 c3 313 4 329 25 368 31 58 94 112 140 119 21 4 43 8 48
10 6 2 146 4 313 4 l302 1 0 -415z"/>
<path d="M749 6297 c-63 -42 -69 -67 -69 -294 l0 -203 260 0 260 0 0 260 0
260 -209 0 c-200 0 -209 -1 -242 -23z"/>
<path d="M1905 6637 c-38 -32 -39 -88 -2 -124 56 -57 147 -17 147 63 0 74 -87
111 -145 61z"/>
<path d="M2415 6635 c-53 -53 -15 -149 58 -149 52 0 87 35 87 86 0 52 -35 88
-85 88 -25 0 -44 -8 -60 -25z"/>
<path d="M2755 6635 c-33 -32 -33 -84 -1 -122 24 -28 25 -28 145 -28 118 0
121 1 148 27 38 38 37 92 -1 124 -25 22 -35 24 -147 24 -114 0 -121 -1 -144
-25z"/>
<path d="M3436 6629 c-30 -35 -32 -58 -11 -98 41 -79 165 -43 165 48 0 11 -12
33 -26 50 -20 25 -34 31 -64 31 -30 0 -44 -6 -64 -31z"/>
<path d="M4535 6644 c-68 -35 -95 -79 -95 -154 0 -59 17 -97 60 -134 67 -56
157 -54 224 4 45 40 59 79 54 144 -8 94 -76 156 -170 156 -23 0 -56 -7 -73
-16z"/>
<path d="M4975 6635 c-33 -32 -33 -84 -2 -120 18 -22 34 -27 85 -32 l62 -6 0
-78 0 -79 -103 0 c-89 0 -110 -3 -148 -23 -46 -25 -89 -84 -89 -124 0 -22 -3
-23 -102 -23 -151 -1 -220 -40 -235 -135 l-6 -35 -83 0 -84 0 0 79 0 79 62 4
c51 4 65 9 85 32 32 38 31 89 -3 121 -24 22 -36 25 -106 25 -161 0 -217 -64
-218 -247 l0 -93 -78 0 -78 0 -11 43 c-15 53 -76 113 -126 122 -30 6 -36 12
-42 41 -7 42 -59 102 -102 120 -18 8 -67 14 -108 14 -71 0 -79 -2 -106 -29
-66 -66 -13 -151 94 -151 42 0 44 -1 56 -40 17 -56 55 -97 110 -117 43 -15 49
-21 64 -64 20 -55 61 -93 117 -110 39 -12 40 -14 40 -56 0 -108 84 -160 151
-94 25 26 29 37 29 85 l0 56 80 0 80 0 0 -42 c0 -84 52 -140 115 -124 45 11
65 44 65 107 0 56 0 57 32 63 66 13 138 89 138 145 0 21 4 21 170 21 l170 0 0
-59 c0 -54 3 -62 31 -85 35 -30 58 -32 98 -11 32 16 51 59 51 116 0 36 2 39
40 49 50 14 106 68 119 117 14 49 14 387 1 435 -14 48 -55 97 -97 114 -18 8
-68 14 -113 14 -73 0 -83 -3 -105 -25z"/>
<path d="M5460 6060 l0 -600 600 0 601 0 -3 448 -3 447 -31 65 c-46 95 -101
153 -192 197 l-76 38 -448 3 -448 3 0 -601z m871 403 c42 -18 98 -72 122 -117
21 -39 22 -54 25 -368 l4 -328 -416 0 -416 0 0 416 0 415 328 -3 c217 -2 336
-8 353 -15z"/>
<path d="M5800 6060 l0 -260 260 0 260 0 0 203 c0 227 -6 252 -69 294 -33 22
-42 23 -242 23 l-209 0 0 -260z"/>
<path d="M1737 6470 c-33 -26 -41 -62 -23 -104 26 -61 111 -70 150 -14 57 82
-48 180 -127 118z"/>
<path d="M2075 6466 c-31 -32 -38 -81 -33 -272 3 -169 9 -192 55 -213 37 -17
59 -13 92 15 28 23 31 31 31 85 l0 59 85 0 85 0 0 -59 c0 -54 3 -62 31 -85 33
-28 59 -32 92 -14 37 19 46 40 47 101 l0 57 84 0 84 0 6 -35 c9 -45 50 -93
101 -116 30 -14 65 -19 138 -19 l97 0 0 -226 0 -226 29 -29 c37 -36 79 -38
118 -5 28 24 28 24 31 169 l3 146 146 3 c145 3 145 3 169 31 33 39 31 81 -5
118 l-29 29 -140 0 -139 0 -11 39 c-29 96 -91 130 -234 131 l-97 0 -11 39
c-13 51 -43 87 -91 111 -35 18 -59 20 -314 20 l-275 0 0 60 c0 51 -4 65 -25
85 -33 33 -87 34 -120 1z"/>
<path d="M3109 6477 c-44 -34 -50 -93 -15 -134 23 -27 28 -28 131 -31 121 -4
158 6 180 49 22 42 18 67 -14 100 -29 29 -30 29 -148 29 -77 -1 -124 -5 -134
-13z"/>
<path d="M3787 6470 c-77 -60 -6 -187 83 -150 65 27 79 92 31 141 -35 35 -77
38 -114 9z"/>
<path d="M1803 5791 c-26 -12 -52 -35 -70 -62 -26 -39 -28 -52 -31 -153 -6
-164 17 -225 99 -266 28 -15 58 -20 117 -20 72 0 82 2 106 26 34 34 35 83 3
120 -20 23 -34 28 -85 32 l-62 4 0 79 0 79 79 0 78 0 6 -56 c9 -89 47 -126
112 -110 48 12 65 40 65 106 l0 60 50 0 c55 0 104 20 114 45 10 27 6 79 -7 96
-27 36 -52 39 -294 39 -212 0 -243 -3 -280 -19z"/>
<path d="M2591 5784 c-24 -20 -31 -34 -31 -63 0 -95 121 -124 163 -40 22 45 8
93 -34 114 -40 21 -63 19 -98 -11z"/>
<path d="M5149 5781 c-29 -29 -29 -30 -29 -149 l0 -120 31 -26 c49 -42 105
-32 134 24 18 35 21 191 4 239 -12 33 -52 61 -89 61 -12 0 -35 -13 -51 -29z"/>
<path d="M2421 5614 l-31 -26 0 -124 c0 -119 1 -126 25 -149 16 -17 35 -25 60
-25 25 0 44 8 60 25 24 23 25 30 25 147 -1 128 -5 144 -47 166 -33 18 -59 14
-92 -14z"/>
<path d="M2784 5630 c-54 -22 -54 -17 -54 -513 l0 -458 25 -24 c34 -35 93 -34
126 1 23 24 24 33 27 170 l3 144 250 0 249 0 0 -136 c0 -170 15 -203 90 -203
61 0 90 38 90 118 l0 51 230 0 231 0 24 25 c29 28 33 79 10 112 -17 24 -71 43
-122 43 -33 0 -33 0 -33 51 0 63 -13 87 -55 105 -70 29 -125 -20 -125 -111 l0
-45 -80 0 -80 0 0 80 0 80 56 0 c48 0 59 4 85 29 46 46 37 106 -21 136 -21 11
-63 15 -160 15 l-130 0 0 45 c0 58 -21 99 -58 114 -68 28 -122 -19 -122 -105
l0 -54 -80 0 -79 0 -11 40 c-14 51 -69 106 -120 120 -38 10 -40 13 -40 49 0
57 -19 100 -51 116 -31 17 -44 18 -75 5z"/>
<path d="M3460 5628 c-54 -29 -64 -95 -21 -139 40 -40 82 -39 123 1 26 27 30
36 25 67 -4 20 -14 45 -24 55 -24 24 -73 31 -103 16z"/>
<path d="M3799 5625 c-32 -18 -52 -63 -43 -99 8 -35 49 -66 86 -66 40 0 88 48
88 89 0 63 -76 107 -131 76z"/>
<path d="M4139 5625 c-31 -17 -49 -61 -49 -116 l0 -39 -45 0 c-58 0 -99 -21
-114 -58 -16 -37 -5 -77 26 -102 23 -18 41 -20 163 -20 l137 0 5 -107 c5 -119
17 -154 68 -197 18 -14 49 -29 71 -32 34 -6 39 -10 39 -34 0 -32 34 -85 73
-114 24 -18 46 -21 148 -24 l119 -4 0 -59 c0 -74 27 -109 84 -109 58 0 86 33
93 108 l6 62 78 0 c73 0 79 -2 79 -20 0 -33 37 -97 70 -120 16 -12 46 -24 65
-27 l35 -6 0 -83 0 -84 -424 0 -423 0 -6 36 c-8 46 -47 97 -90 118 -30 14 -78
16 -337 16 -243 0 -306 -3 -329 -14 -42 -22 -87 -79 -95 -120 l-7 -36 -164 0
-165 0 0 54 c0 44 -5 60 -26 85 -35 42 -93 44 -129 5 -24 -25 -25 -34 -25
-141 l0 -113 38 18 c121 61 255 86 434 80 120 -5 157 -10 228 -33 47 -15 102
-36 123 -46 l37 -19 0 55 0 55 80 0 80 0 0 -84 c0 -83 -1 -85 -25 -88 -22 -3
-19 -8 39 -55 35 -29 85 -79 112 -112 l49 -61 3 110 3 110 84 0 85 0 0 -250
c0 -248 0 -250 -21 -250 -14 0 -19 -5 -16 -13 3 -8 11 -48 18 -90 l13 -77 173
0 173 0 0 -143 c0 -130 2 -145 20 -165 48 -52 131 -32 149 35 6 21 11 52 11
69 0 27 5 32 40 43 52 15 105 69 117 118 9 37 10 38 63 43 71 7 96 22 110 64
9 28 8 40 -5 65 -20 40 -43 51 -104 51 l-51 0 0 43 c0 84 -51 139 -113 123
-47 -12 -67 -43 -67 -108 l0 -58 -170 0 -170 0 0 165 0 164 40 11 c67 18 130
86 130 140 0 19 6 20 85 20 l85 0 0 -54 c0 -72 29 -110 84 -110 55 0 88 38 94
107 l4 55 102 4 c141 6 200 41 226 134 l13 44 141 0 c147 1 162 4 184 47 18
33 14 59 -14 92 l-26 31 -144 0 -144 0 0 94 c0 105 -11 148 -49 189 -52 57
-70 61 -272 65 l-186 4 -6 56 c-8 72 -39 106 -94 105 -55 -2 -83 -38 -83 -109
l0 -54 -85 0 c-79 0 -85 1 -85 20 0 54 -63 122 -130 140 l-40 11 0 100 c0 61
-5 112 -14 132 -17 42 -66 83 -116 98 l-40 12 0 53 c0 41 -5 59 -22 78 -28 32
-74 41 -109 21z"/>
<path d="M4485 5628 c-32 -19 -44 -40 -45 -81 0 -71 63 -106 129 -72 33 16 41
33 41 80 0 25 -8 40 -31 59 -33 28 -62 32 -94 14z"/>
<path d="M4811 5614 c-49 -41 -41 -112 16 -142 59 -32 123 7 123 75 -1 42 -13
63 -47 81 -33 18 -59 14 -92 -14z"/>
<path d="M4670 5463 c-8 -3 -25 -15 -37 -26 -22 -19 -23 -29 -23 -144 0 -118
1 -125 25 -148 16 -17 35 -25 60 -25 25 0 44 8 60 25 24 23 25 30 25 148 0
115 -2 125 -22 145 -25 23 -65 34 -88 25z"/>
<path d="M1137 5286 c-87 -32 -116 -89 -117 -227 l0 -96 -56 -6 c-70 -7 -101
-27 -109 -71 -13 -67 25 -105 108 -106 l57 0 0 -170 0 -170 -165 0 -165 0 0
88 c0 48 -5 104 -10 124 -18 65 -87 128 -138 128 -17 0 -20 9 -24 60 -3 45
-10 66 -28 85 -32 34 -91 35 -125 0 -22 -22 -25 -32 -25 -105 0 -122 46 -192
135 -207 l35 -6 0 -106 c0 -91 3 -111 23 -145 27 -47 63 -76 108 -85 33 -7 34
-8 39 -66 6 -70 11 -80 51 -101 25 -12 37 -13 65 -4 42 14 64 53 64 115 l0 45
78 0 77 0 20 -52 c15 -39 31 -60 63 -83 l44 -30 194 -3 194 -4 10 -39 c14 -50
69 -105 120 -119 l40 -11 0 -77 0 -77 -49 -18 c-57 -20 -96 -61 -111 -117
l-11 -40 -79 0 -80 0 0 79 0 79 62 4 c51 4 65 9 85 32 32 38 30 80 -6 117
l-29 29 -162 0 c-114 0 -170 -4 -194 -14 -41 -17 -94 -81 -102 -123 l-6 -33
-163 0 -163 0 -4 62 c-4 51 -9 65 -32 85 -30 25 -65 29 -99 11 -36 -19 -46
-40 -47 -99 l0 -57 -35 -6 c-40 -8 -99 -55 -121 -97 -29 -57 -14 -141 34 -193
53 -57 45 -56 625 -56 294 0 549 3 567 7 46 9 117 79 125 124 6 31 12 38 45
48 50 15 99 56 116 98 9 20 14 70 14 131 l0 100 62 4 c51 4 65 9 85 32 32 38
31 89 -3 121 -22 21 -37 25 -85 25 -54 0 -59 2 -59 22 0 58 -90 148 -149 148
-19 0 -21 6 -21 59 0 48 -4 63 -25 85 -32 34 -83 35 -121 3 -23 -20 -28 -34
-32 -85 l-4 -62 -79 0 -79 0 0 85 0 85 60 0 c51 0 65 4 85 25 28 27 32 63 10
104 -18 35 -32 41 -101 41 l-54 0 0 85 0 85 79 0 79 0 4 -60 c3 -45 10 -66 28
-85 33 -35 91 -35 126 0 l25 25 -3 263 -3 264 -28 36 c-51 68 -68 72 -297 74
-156 2 -214 -1 -243 -11z m393 -246 l0 -80 -165 0 -165 0 0 80 0 80 165 0 165
0 0 -80z"/>
<path d="M2110 5293 c-62 -23 -81 -103 -35 -148 53 -54 145 -16 145 59 0 58
-62 108 -110 89z"/>
<path d="M5004 5290 c-56 -23 -72 -103 -29 -145 44 -45 116 -29 141 30 29 70
-43 144 -112 115z"/>
<path d="M5508 5284 c-54 -29 -63 -85 -22 -133 l26 -31 120 0 c119 0 120 0
149 29 16 16 29 39 29 51 0 33 -26 75 -55 88 -38 17 -213 15 -247 -4z"/>
<path d="M6364 5286 c-59 -26 -66 -112 -12 -150 83 -58 183 52 116 128 -29 32
-64 39 -104 22z"/>
<path d="M1935 5120 c-11 -4 -29 -18 -40 -30 -19 -21 -20 -36 -20 -225 0 -201
0 -204 24 -229 33 -35 92 -36 126 -1 25 24 25 25 25 229 0 199 -1 206 -22 229
-26 28 -63 39 -93 27z"/>
<path d="M5855 5116 c-31 -13 -55 -51 -55 -86 0 -10 12 -32 26 -49 l26 -31
144 0 144 0 0 -170 0 -170 -59 0 c-54 0 -62 -3 -85 -31 -28 -33 -32 -59 -14
-92 19 -37 40 -46 101 -47 l57 0 0 -85 0 -85 -56 0 c-48 0 -59 -4 -85 -29 -32
-33 -36 -58 -14 -100 16 -32 59 -51 116 -51 l39 0 0 -80 0 -80 -54 0 c-89 0
-137 -60 -102 -128 25 -48 53 -54 265 -50 l193 3 24 28 c33 39 31 81 -5 118
-26 25 -37 29 -85 29 l-56 0 0 165 c0 124 3 167 13 169 6 3 25 7 42 11 43 10
104 77 111 125 l7 40 59 0 c73 0 108 27 108 85 0 58 -35 85 -110 85 -54 0 -60
2 -60 20 0 33 -37 97 -70 120 -16 12 -46 24 -65 27 l-35 6 0 106 c0 91 -3 111
-23 145 -27 48 -62 75 -113 86 -61 15 -294 11 -329 -4z"/>
<path d="M2357 4951 c-46 -10 -84 -37 -114 -81 -20 -28 -23 -46 -23 -122 0
-81 2 -91 25 -113 16 -17 35 -25 60 -25 58 0 85 35 85 110 l0 60 60 0 c51 0
65 4 85 25 34 33 34 93 1 124 -27 26 -112 36 -179 22z"/>
<path d="M5669 4940 c-9 -5 -22 -23 -29 -40 -38 -92 80 -166 144 -89 14 17 26
39 26 50 0 28 -26 75 -45 83 -24 9 -78 7 -96 -4z"/>
<path d="M2075 4585 c-34 -33 -34 -93 -2 -123 55 -51 147 -12 147 63 0 76 -92
114 -145 60z"/>
<path d="M2415 4585 c-17 -16 -25 -35 -25 -60 0 -58 35 -85 108 -85 l59 0 7
-42 c8 -49 66 -113 112 -123 16 -4 35 -8 42 -11 8 -2 12 -28 12 -84 l0 -80
-60 0 c-51 0 -65 -4 -85 -25 -48 -47 -21 -135 46 -150 25 -6 31 0 81 77 55 84
140 178 213 236 39 32 39 32 13 32 -23 0 -29 6 -38 40 -16 58 -63 107 -118
123 -41 12 -47 18 -53 47 -9 41 -36 78 -79 108 -28 19 -46 22 -122 22 -81 0
-91 -2 -113 -25z"/>
<path d="M2245 4415 c-34 -33 -34 -93 -1 -124 56 -53 146 -13 146 65 0 75 -92
113 -145 59z"/>
<path d="M5826 4409 c-30 -35 -32 -58 -11 -98 41 -79 165 -43 165 48 0 11 -12
33 -26 50 -20 25 -34 31 -64 31 -30 0 -44 -6 -64 -31z"/>
<path d="M3347 4262 c-37 -40 -5 -92 55 -92 27 0 28 -1 28 -60 l0 -59 -37 -7
c-55 -10 -131 -41 -186 -76 l-49 -31 -46 46 c-44 44 -45 47 -29 65 33 36 16
92 -28 92 -23 0 -194 -167 -196 -191 -3 -28 3 -44 19 -56 23 -19 37 -16 70 12
l29 24 43 -44 43 -44 -31 -48 c-35 -55 -66 -131 -76 -185 l-7 -38 -59 0 c-59
0 -60 0 -60 28 0 39 -21 65 -55 65 -48 0 -55 -23 -55 -168 0 -115 2 -134 18
-148 40 -37 92 -5 92 55 0 27 1 28 60 28 l59 0 7 -37 c10 -55 41 -131 76 -186
l31 -49 -46 -46 c-44 -44 -47 -45 -65 -29 -22 20 -63 22 -80 5 -27 -27 -11
-55 77 -141 73 -72 94 -87 120 -87 25 0 34 6 41 26 11 27 8 37 -21 70 -18 20
-18 21 25 63 l44 43 59 -35 c57 -34 116 -58 181 -72 32 -7 32 -7 32 -66 0 -58
0 -59 -28 -59 -39 0 -64 -21 -64 -55 0 -48 22 -55 167 -55 115 0 134 2 148 18
37 40 5 92 -55 92 -27 0 -28 1 -28 59 0 59 0 59 33 66 64 14 123 38 181 72
l58 36 45 -46 46 -45 -22 -27 c-37 -49 -23 -95 30 -95 22 0 47 20 118 97 50
53 91 104 91 114 0 24 -27 49 -53 49 -11 0 -31 -10 -44 -22 l-24 -22 -44 44
-44 45 36 58 c20 31 46 92 58 135 l23 77 61 3 61 3 0 -40 c0 -30 5 -43 19 -51
27 -14 47 -13 65 6 13 12 16 41 16 153 0 122 -2 140 -19 155 -15 13 -23 15
-47 6 -35 -14 -44 -26 -44 -62 0 -27 -1 -28 -58 -28 l-58 0 -21 73 c-12 39
-38 98 -57 131 -20 32 -36 61 -36 65 0 4 19 26 43 49 l43 42 34 -25 c42 -31
45 -31 75 -1 18 18 23 30 17 44 -9 24 -187 192 -204 193 -27 3 -43 -3 -55 -19
-19 -23 -16 -37 12 -70 l24 -29 -44 -43 -44 -43 -48 31 c-55 35 -131 66 -185
76 l-38 7 0 59 c0 59 0 60 28 60 39 0 65 21 65 55 0 48 -23 55 -168 55 -115 0
-134 -2 -148 -18z m26 -423 c37 -19 57 -52 57 -94 0 -101 -115 -150 -182 -77
-14 15 -28 39 -32 54 -8 35 14 90 45 112 27 19 81 21 112 5z m358 -519 c29
-16 26 -75 -5 -96 -36 -23 -80 -1 -84 42 -5 53 40 80 89 54z"/>
<path d="M365 4245 c-54 -53 -15 -149 59 -149 81 0 121 100 61 151 -36 31 -88
31 -120 -2z"/>
<path d="M5499 4257 c-34 -26 -39 -55 -39 -214 0 -145 2 -161 23 -198 55 -96
176 -121 262 -53 33 26 65 91 65 133 0 72 -68 158 -134 171 -33 6 -34 7 -38
66 -4 51 -9 65 -32 85 -30 25 -81 30 -107 10z"/>
<path d="M2245 4075 c-23 -22 -25 -32 -25 -110 0 -56 5 -96 14 -114 22 -42 79
-87 120 -95 l36 -7 0 -59 c0 -53 3 -61 31 -84 33 -28 59 -32 92 -14 39 20 46
40 47 126 0 126 -33 180 -127 205 l-43 11 0 59 c0 48 -4 62 -25 82 -33 34 -87
34 -120 0z"/>
<path d="M6527 4089 c-11 -6 -25 -27 -33 -45 -13 -31 -13 -39 2 -69 41 -87
164 -55 164 43 0 62 -77 103 -133 71z"/>
<path d="M5828 3730 c-26 -27 -30 -36 -25 -67 9 -52 38 -78 88 -78 81 0 117
88 60 146 -40 40 -82 39 -123 -1z"/>
<path d="M2265 3578 c-35 -20 -44 -41 -45 -98 l0 -56 -44 -12 c-63 -17 -111
-67 -125 -132 -14 -64 -14 -263 -1 -312 19 -69 97 -92 145 -43 24 23 25 28 25
170 l0 145 85 0 85 0 0 -145 c0 -142 1 -147 25 -170 33 -34 87 -34 120 0 24
23 25 28 25 170 0 141 1 145 21 145 14 0 19 5 16 13 -3 8 -11 48 -18 90 l-13
77 -88 0 -88 0 0 58 c-1 60 -10 81 -47 100 -27 15 -52 15 -78 0z"/>
<path d="M5659 3561 c-20 -20 -29 -39 -29 -61 0 -22 9 -41 29 -61 37 -36 79
-38 118 -5 22 19 28 32 28 66 0 82 -88 119 -146 61z"/>
<path d="M6020 3577 c-51 -26 -62 -104 -21 -141 10 -9 35 -19 54 -23 31 -5 40
-1 67 25 40 41 41 83 1 123 -32 31 -61 36 -101 16z"/>
<path d="M1749 3405 c-38 -21 -55 -67 -39 -105 27 -65 92 -79 141 -31 20 20
29 39 29 61 0 22 -9 41 -29 61 -32 32 -62 36 -102 14z"/>
<path d="M4485 3408 c-41 -23 -44 -38 -45 -185 l0 -143 -49 0 -49 0 -55 -82
c-31 -46 -79 -109 -107 -141 -50 -55 -52 -59 -35 -77 35 -38 78 -50 189 -50
l106 0 0 -60 c0 -75 27 -110 85 -110 25 0 44 8 60 25 24 23 25 28 25 170 l0
145 170 0 c170 0 170 0 170 -22 0 -13 10 -41 23 -63 24 -42 86 -85 125 -85 21
0 22 -4 22 -85 l0 -85 -79 0 -78 0 -6 61 c-7 78 -35 111 -93 111 -58 0 -84
-35 -84 -113 0 -58 0 -59 -29 -59 -58 0 -141 -83 -141 -141 0 -25 -4 -29 -29
-29 -58 0 -141 -83 -141 -141 l0 -29 -85 0 -85 0 0 106 c0 118 -12 157 -62
199 -16 14 -47 28 -69 31 l-39 7 0 59 c0 49 -4 63 -25 83 -13 14 -29 25 -34
25 -6 0 -35 -16 -66 -35 -55 -35 -55 -36 -55 -85 0 -45 -2 -50 -22 -50 -27 0
-84 -33 -109 -63 -11 -12 -24 -41 -30 -64 l-11 -43 -58 0 c-53 0 -61 -3 -84
-31 -28 -33 -32 -59 -14 -92 23 -45 32 -46 270 -47 l227 0 11 -40 c18 -66 86
-130 138 -130 16 0 20 -10 25 -61 7 -78 37 -114 94 -112 55 2 83 38 83 109 l0
54 168 0 168 0 12 -44 c22 -84 119 -138 204 -115 53 14 112 72 127 124 6 22
11 79 11 128 0 81 1 87 20 87 54 0 122 63 140 130 l11 40 191 0 c214 0 240 7
287 76 30 43 41 165 21 215 -19 45 -68 64 -115 45 -41 -18 -55 -47 -55 -117
l0 -49 -79 0 -78 0 -13 44 c-14 51 -56 98 -103 116 -55 20 -60 25 -71 64 -14
48 -68 102 -113 113 -37 9 -43 15 -64 71 -15 41 -58 83 -101 99 -21 7 -102 12
-215 12 l-183 1 0 144 0 144 -31 26 c-33 28 -62 32 -94 14z m465 -1103 l0 -85
-85 0 -85 0 0 85 0 85 85 0 85 0 0 -85z"/>
<path d="M5850 3408 c-28 -15 -50 -52 -50 -86 0 -35 52 -82 90 -82 42 0 90 47
90 89 0 62 -75 107 -130 79z"/>
<path d="M6245 3401 c-79 -36 -104 -90 -105 -228 l0 -93 -130 0 c-144 0 -183
-11 -200 -56 -16 -42 -12 -64 19 -95 l29 -29 162 0 c176 0 205 7 252 56 40 43
48 75 48 185 l0 99 56 0 c48 0 59 4 85 29 20 20 29 39 29 61 0 22 -9 41 -29
61 -27 27 -35 29 -103 29 -49 0 -86 -6 -113 -19z"/>
<path d="M394 3240 c-31 -12 -54 -49 -54 -85 1 -56 41 -85 119 -85 l51 0 0
-59 c0 -50 4 -62 26 -85 34 -34 83 -35 120 -3 23 20 28 34 32 85 l4 62 53 0
c85 0 132 55 104 122 -21 52 -49 58 -251 57 -101 0 -193 -4 -204 -9z"/>
<path d="M1409 3235 c-54 -30 -60 -107 -12 -145 22 -17 41 -20 140 -20 113 0
115 0 144 29 36 37 38 79 5 118 -24 27 -27 28 -138 31 -84 1 -120 -2 -139 -13z"/>
<path d="M5395 3231 c-46 -21 -79 -54 -94 -94 -14 -37 -14 -159 0 -190 22 -49
91 -61 135 -24 23 20 28 34 32 85 l4 62 53 0 c60 0 99 23 109 66 10 37 -11 82
-45 99 -40 21 -145 19 -194 -4z"/>
<path d="M1063 3060 c-63 -38 -51 -129 21 -154 60 -22 124 34 112 99 -7 36
-51 75 -86 75 -8 0 -29 -9 -47 -20z"/>
<path d="M394 2900 c-45 -18 -54 -46 -54 -173 0 -112 1 -119 25 -142 32 -33
84 -33 122 -1 28 24 28 25 28 145 0 115 -1 122 -25 145 -29 29 -66 39 -96 26z"/>
<path d="M904 2896 c-42 -18 -48 -30 -54 -101 -5 -58 -6 -59 -39 -66 -45 -9
-81 -38 -108 -85 -20 -34 -23 -54 -23 -146 l0 -108 -145 0 c-142 0 -147 -1
-170 -25 -34 -33 -34 -87 0 -120 23 -24 28 -25 170 -25 139 0 145 -1 145 -20
0 -33 37 -97 70 -120 16 -12 46 -24 65 -27 l35 -6 0 -139 c0 -77 5 -148 10
-159 6 -10 24 -26 41 -34 25 -13 37 -14 65 -5 65 22 64 11 64 595 0 580 1 572
-61 594 -18 6 -32 11 -33 11 -1 -1 -15 -7 -32 -14z"/>
<path d="M1414 2896 c-36 -16 -58 -61 -48 -100 10 -42 49 -66 108 -66 l51 0
18 -49 c20 -58 72 -107 122 -117 l35 -6 0 -84 0 -84 -58 0 c-50 0 -62 -4 -82
-25 -16 -17 -24 -37 -24 -60 0 -23 8 -43 24 -60 20 -21 32 -25 81 -25 l58 0
11 -40 c12 -46 51 -95 91 -115 41 -22 139 -30 182 -16 69 23 90 99 42 146 -20
21 -34 25 -85 25 l-60 0 0 255 0 255 60 0 c51 0 65 4 85 25 33 32 33 84 1 122
l-24 28 -279 2 c-217 2 -285 0 -309 -11z"/>
<path d="M2614 2900 c-87 -35 -62 -170 31 -170 78 0 116 92 62 147 -26 26 -64
35 -93 23z"/>
<path d="M6364 2896 c-59 -26 -66 -112 -12 -150 83 -58 183 52 116 128 -29 32
-64 39 -104 22z"/>
<path d="M1245 2726 c-31 -13 -55 -51 -55 -86 0 -10 12 -32 26 -49 59 -71 167
-17 149 75 -10 53 -68 82 -120 60z"/>
<path d="M2167 2725 c-80 -28 -116 -83 -124 -190 -8 -104 4 -198 30 -237 29
-43 83 -78 118 -78 l29 0 0 -110 c0 -123 9 -150 60 -194 17 -14 49 -30 70 -36
l40 -11 0 -79 c0 -74 -2 -80 -20 -80 -33 0 -97 -37 -120 -70 -12 -16 -24 -46
-27 -65 l-6 -35 -59 0 c-74 0 -108 -27 -108 -87 1 -64 37 -93 119 -93 l51 0 0
-58 c0 -44 5 -63 20 -79 38 -41 92 -42 130 -1 18 20 20 35 20 163 l0 142 43
12 c46 14 91 51 113 93 9 18 14 61 14 131 l0 105 60 4 c48 3 66 10 85 29 37
38 37 88 0 124 -23 24 -28 25 -170 25 l-145 0 0 105 c0 67 -5 118 -14 138 -18
45 -70 86 -117 93 l-39 7 0 83 0 84 85 0 85 0 0 -60 c0 -75 27 -110 85 -110
25 0 44 8 60 25 23 22 25 32 25 113 0 76 -3 94 -22 122 -30 44 -66 69 -114 80
-59 14 -214 11 -257 -5z"/>
<path d="M6025 2727 c-31 -14 -55 -52 -55 -87 0 -10 12 -32 26 -49 23 -28 31
-31 84 -31 l58 0 4 -60 c5 -77 33 -110 90 -110 29 0 45 7 63 26 22 24 25 36
25 106 0 142 -57 206 -192 214 -50 3 -83 0 -103 -9z"/>
<path d="M6554 2732 c-12 -2 -32 -14 -45 -28 -23 -24 -24 -33 -24 -146 0 -119
0 -120 28 -144 38 -32 90 -32 122 1 24 23 25 30 25 142 0 89 -4 124 -15 140
-17 24 -60 40 -91 35z"/>
<path d="M3090 2650 c0 -13 47 -58 79 -74 24 -13 53 -16 119 -14 94 3 93 8
-11 32 -37 8 -94 26 -127 39 -33 14 -60 21 -60 17z"/>
<path d="M3675 2583 c-16 -3 -34 -9 -39 -14 -17 -15 67 -10 88 6 20 15 20 15
0 14 -10 -1 -32 -4 -49 -6z"/>
<path d="M1399 2547 c-44 -34 -49 -83 -13 -126 19 -23 34 -31 59 -31 47 0 64
8 80 41 22 41 18 77 -10 104 -27 28 -88 34 -116 12z"/>
<path d="M2814 2541 c-41 -25 -74 -72 -81 -116 l-6 -35 -59 0 c-73 0 -108 -27
-108 -85 0 -58 35 -85 108 -85 l59 0 6 -36 c11 -67 81 -134 142 -134 l25 0 0
-143 c0 -115 3 -147 16 -165 23 -34 60 -45 101 -31 54 17 63 48 63 204 0 133
0 135 23 135 26 0 83 33 108 63 11 12 24 41 30 65 l11 42 57 0 c59 1 80 11 99
47 18 33 14 59 -14 92 l-26 31 -142 0 -143 0 -12 40 c-14 46 -52 95 -92 115
-40 21 -127 19 -165 -4z"/>
<path d="M5832 2370 c-59 -55 -24 -150 56 -150 45 0 67 13 82 49 25 61 -15
121 -80 121 -23 0 -44 -8 -58 -20z"/>
<path d="M6340 2365 c-53 -56 -15 -145 62 -145 52 0 88 35 88 85 0 77 -97 116
-150 60z"/>
<path d="M1285 2201 c-44 -27 -74 -63 -85 -102 -15 -50 -12 -146 5 -178 20
-40 66 -55 111 -36 39 16 54 46 54 109 l0 43 56 6 c30 3 66 13 80 21 42 28 44
96 4 136 -28 28 -180 29 -225 1z"/>
<path d="M5315 2195 c-56 -55 -16 -145 63 -145 50 0 86 36 86 85 0 77 -95 115
-149 60z"/>
<path d="M5669 2207 c-27 -21 -39 -54 -39 -106 0 -46 -2 -51 -22 -51 -40 0
-105 -47 -127 -93 -12 -24 -21 -51 -21 -60 0 -15 -13 -17 -106 -17 -126 0
-170 -18 -210 -86 -23 -39 -24 -48 -24 -232 l0 -192 -136 0 c-171 0 -203 -14
-204 -92 0 -28 7 -42 31 -62 30 -25 35 -26 170 -26 l139 0 0 -228 c0 -215 1
-229 20 -250 43 -46 109 -41 140 11 17 28 20 50 20 165 l0 132 80 0 80 0 0
-226 0 -226 29 -29 c37 -36 79 -38 117 -6 23 20 28 34 32 85 4 59 5 60 38 66
44 9 93 51 115 101 14 30 19 65 19 138 l0 97 79 0 79 0 4 -62 c4 -51 9 -65 32
-85 38 -32 80 -30 117 6 25 25 29 37 29 84 l0 55 43 10 c46 12 99 60 116 105
16 42 14 261 -3 300 -18 43 -78 95 -120 102 -29 6 -35 12 -41 42 -9 49 -69
111 -120 125 -37 10 -43 16 -53 53 -14 52 -76 111 -126 121 l-36 6 0 138 c0
134 -1 139 -26 169 -20 24 -34 31 -62 31 -21 0 -44 -6 -53 -13z m131 -757 l0
-250 -250 0 -250 0 0 250 0 250 250 0 250 0 0 -250z m340 -170 l0 -80 -80 0
-80 0 0 80 0 80 80 0 80 0 0 -80z"/>
<path d="M5489 1511 c-35 -35 -38 -77 -9 -114 39 -50 117 -42 146 15 46 89
-66 170 -137 99z"/>
<path d="M5996 2189 c-28 -33 -32 -59 -14 -92 17 -33 39 -46 78 -47 47 0 78
23 86 64 11 60 -27 105 -88 106 -28 0 -42 -7 -62 -31z"/>
<path d="M1564 2027 c-23 -20 -28 -34 -32 -85 l-4 -62 -53 0 c-88 0 -136 -61
-101 -128 22 -42 61 -52 202 -52 l124 0 0 -300 c0 -328 3 -350 56 -370 42 -16
64 -12 95 19 25 26 29 37 29 85 l0 56 54 0 c73 0 116 33 116 90 0 57 -43 90
-116 90 l-54 0 0 191 c0 180 -1 194 -22 231 -24 42 -90 88 -126 88 -20 0 -22
5 -22 59 0 50 -4 62 -26 85 -34 34 -83 35 -120 3z"/>
<path d="M3272 2030 c-48 -45 -38 -114 19 -143 45 -22 93 -8 114 34 21 40 19
63 -11 98 -32 38 -87 43 -122 11z"/>
<path d="M3606 2019 c-30 -35 -32 -58 -11 -98 16 -32 59 -51 116 -51 l39 0 0
-45 c0 -62 22 -101 64 -115 28 -9 40 -8 65 5 40 20 51 43 51 104 l0 51 40 0
c111 0 169 85 105 154 l-24 26 -210 0 -209 0 -26 -31z"/>
<path d="M6173 2026 c-27 -23 -28 -28 -31 -134 -4 -130 7 -164 62 -182 28 -9
40 -8 65 5 17 8 35 24 41 34 14 27 13 227 -2 254 -28 53 -88 63 -135 23z"/>
<path d="M6513 2026 c-28 -24 -28 -25 -28 -145 0 -118 1 -121 27 -148 38 -38
92 -37 124 1 22 25 24 35 24 147 0 114 -1 121 -25 144 -32 33 -84 33 -122 1z"/>
<path d="M365 1855 c-33 -32 -33 -84 -1 -122 23 -27 29 -28 122 -32 127 -4
171 8 190 55 18 42 10 78 -23 104 -22 17 -41 20 -145 20 -113 0 -120 -1 -143
-25z"/>
<path d="M3439 1851 l-29 -29 0 -141 0 -141 -79 0 -79 0 -4 62 c-4 51 -9 65
-32 85 -38 32 -80 30 -117 -6 -25 -26 -29 -37 -29 -85 l0 -56 -56 0 c-48 0
-59 -4 -85 -29 -36 -37 -38 -79 -6 -117 20 -23 34 -28 85 -32 l62 -4 0 -100
c0 -61 5 -111 14 -132 17 -41 79 -92 121 -100 28 -6 34 -12 39 -41 8 -43 59
-103 103 -121 20 -9 71 -14 133 -14 l100 0 0 -56 c0 -48 4 -59 29 -85 40 -39
82 -39 122 0 27 27 29 35 29 103 -1 117 -41 183 -130 209 -31 10 -40 18 -49
50 -17 56 -56 96 -112 116 l-49 18 0 76 0 76 39 11 c53 16 90 48 112 96 16 34
19 67 19 199 l0 159 -29 29 c-20 20 -39 29 -61 29 -22 0 -41 -9 -61 -29z"/>
<path d="M4465 1855 c-35 -34 -34 -93 0 -125 37 -34 90 -33 121 4 51 59 15
146 -61 146 -25 0 -44 -8 -60 -25z"/>
<path d="M2756 1684 c-70 -71 14 -186 102 -140 42 22 59 74 37 115 -29 57 -94
69 -139 25z"/>
<path d="M4303 1695 c-47 -33 -56 -159 -17 -240 28 -60 81 -88 178 -93 77 -4
83 -3 114 23 32 27 42 68 26 110 -10 25 -59 45 -114 45 l-50 0 0 60 c0 53 -3
64 -26 85 -31 29 -78 33 -111 10z"/>
<path d="M4635 1685 c-35 -34 -34 -93 1 -126 24 -23 32 -24 144 -24 112 0 120
1 144 24 35 33 36 92 1 126 -23 24 -30 25 -145 25 -115 0 -122 -1 -145 -25z"/>
<path d="M342 1093 l3 -448 32 -67 c41 -88 113 -160 201 -201 l67 -32 448 -3
447 -3 0 601 0 600 -600 0 -601 0 3 -447z m1008 -159 l0 -415 -327 3 c-218 2
-337 8 -354 15 -42 18 -98 72 -122 117 -21 39 -22 54 -25 369 l-4 327 416 0
416 0 0 -416z"/>
<path d="M680 998 c0 -228 6 -253 69 -295 33 -22 42 -23 242 -23 l209 0 0 260
0 260 -260 0 -260 0 0 -202z"/>
<path d="M2605 1528 c-40 -23 -44 -39 -45 -165 l0 -121 31 -26 c17 -14 39 -26
50 -26 36 0 77 29 88 61 16 46 14 193 -3 234 -22 51 -74 70 -121 43z"/>
<path d="M3953 1516 c-27 -23 -28 -28 -28 -113 0 -81 3 -93 28 -132 38 -58 91
-80 185 -81 68 0 76 2 103 29 67 67 18 151 -87 151 l-54 0 0 56 c0 48 -4 59
-29 85 -37 36 -79 38 -118 5z"/>
<path d="M3613 1346 c-22 -19 -28 -32 -28 -65 0 -56 30 -86 86 -86 81 0 117
88 60 146 -37 36 -79 38 -118 5z"/>
<path d="M2095 1188 c-32 -17 -45 -39 -45 -76 0 -45 13 -67 49 -82 93 -38 167
80 90 144 -33 28 -62 32 -94 14z"/>
<path d="M4485 1188 c-32 -17 -45 -39 -45 -76 0 -45 13 -67 49 -82 60 -25 121
15 121 79 -1 69 -67 111 -125 79z"/>
<path d="M1919 1015 c-85 -46 -30 -185 64 -161 69 17 89 95 38 147 -32 32 -62
36 -102 14z"/>
<path d="M2251 1004 c-78 -65 -4 -183 90 -144 36 15 49 37 49 83 0 27 -7 41
-31 61 -17 14 -41 26 -54 26 -13 0 -37 -12 -54 -26z"/>
<path d="M2675 1018 c-55 -19 -115 -90 -115 -136 0 -13 -12 -22 -40 -31 -67
-20 -130 -87 -130 -140 0 -15 -10 -23 -40 -31 -66 -18 -130 -86 -130 -138 0
-17 -9 -20 -60 -24 -45 -3 -66 -10 -85 -28 -35 -33 -35 -91 0 -126 l25 -25
178 3 c178 3 179 3 215 31 58 44 67 71 67 197 l0 110 85 0 85 0 0 -59 c0 -50
4 -62 26 -85 66 -66 154 -10 154 99 l0 45 80 0 80 0 0 -56 c0 -48 4 -59 29
-85 37 -36 79 -38 117 -5 24 20 28 33 32 87 2 36 -1 83 -7 107 -15 53 -69 108
-121 122 -33 9 -41 16 -49 45 -14 52 -46 91 -94 114 -37 18 -61 21 -158 20
-63 0 -127 -5 -144 -11z"/>
<path d="M4641 1004 c-78 -65 -4 -183 90 -144 36 15 49 37 49 83 0 27 -7 41
-31 61 -17 14 -41 26 -54 26 -13 0 -37 -12 -54 -26z"/>
<path d="M4840 853 c-93 -34 -72 -173 27 -173 80 0 114 102 52 154 -30 25 -49
30 -79 19z"/>
<path d="M6361 846 c-34 -19 -50 -54 -51 -108 0 -47 -1 -47 -40 -58 -79 -21
-140 -116 -126 -195 8 -40 42 -91 79 -119 26 -19 44 -21 208 -24 l179 -3 25
25 c33 33 34 85 2 122 -20 23 -34 28 -85 32 l-62 4 0 139 c0 129 -1 140 -22
163 -28 31 -74 41 -107 22z"/>
<path d="M1940 683 c-25 -9 -52 -36 -61 -61 -11 -29 11 -86 39 -101 59 -31
132 9 132 73 0 58 -62 108 -110 89z"/>
<path d="M3974 676 c-59 -26 -68 -106 -17 -146 22 -17 41 -20 143 -20 113 0
118 1 144 26 34 35 35 83 2 121 -23 27 -28 28 -133 31 -75 1 -117 -2 -139 -12z"/>
<path d="M4500 683 c-43 -16 -60 -46 -60 -104 l0 -57 -60 -4 c-48 -3 -66 -10
-85 -29 -37 -38 -37 -88 0 -124 22 -22 32 -25 105 -25 94 0 144 20 182 72 19
28 24 48 26 128 3 89 2 96 -20 117 -25 23 -64 35 -88 26z"/>
<path d="M5004 680 c-45 -18 -54 -46 -54 -173 0 -112 1 -119 25 -142 33 -34
87 -34 120 -1 30 30 38 73 34 180 -4 75 -7 88 -29 110 -29 29 -66 39 -96 26z"/>
<path d="M5843 670 c-63 -38 -51 -129 21 -154 60 -22 124 34 112 99 -7 36 -51
75 -86 75 -8 0 -29 -9 -47 -20z"/>
<path d="M2953 505 c-17 -7 -36 -22 -42 -34 -44 -81 52 -168 127 -115 55 38
48 119 -12 148 -40 19 -33 19 -73 1z"/>
<path d="M3293 505 c-58 -25 -70 -83 -27 -134 l26 -31 123 0 123 0 26 31 c14
17 26 39 26 50 0 36 -29 77 -61 88 -45 15 -197 13 -236 -4z"/>
</g>
</svg>
