<svg xmlns="http://www.w3.org/2000/svg" viewBox="0 0 24 24"><path fill="#fff" d="M16.4 14a16.5 16.5 0 0 0 0-4h3.3a8.2 8.2 0 0 1 0 4m-5.1 5.6c.6-1.2 1-2.4 1.4-3.6h3a8 8 0 0 1-4.4 3.6m-.3-5.6H9.7a13.3 13.3 0 0 1 0-4h4.6a14.6 14.6 0 0 1 0 4M12 20c-.8-1.2-1.5-2.6-2-4h4c-.5 1.4-1.2 2.8-2 4M8 8H5a8 8 0 0 1 4.4-3.6C8.8 5.5 8.4 6.7 8 8m-3 8h3c.3 1.3.8 2.4 1.4 3.6A8 8 0 0 1 5.1 16m-.8-2a8.2 8.2 0 0 1 0-4h3.3a16.5 16.5 0 0 0 0 4M12 4c.8 1.2 1.5 2.6 2 4h-4c.5-1.4 1.2-2.8 2-4m7 4h-3c-.3-1.3-.8-2.5-1.4-3.6A8 8 0 0 1 18.9 8M12 2A10 10 0 0 0 2 12a10 10 0 0 0 10 10 10 10 0 0 0 10-10A10 10 0 0 0 12 2Z"/></svg>