<svg xmlns="http://www.w3.org/2000/svg" viewBox="0 0 196 196"><path fill="#111" d="M0 0h196v196H0z"/><path fill="#4d4944" d="M16 33h165v131H16z"/><path fill="#fff" fill-opacity=".5" d="m150 119-100-7 103-92-3 99Z"/><path fill="#fff" fill-opacity=".5" d="M131 130 86 50l-24 50 69 30Z"/><path fill-opacity=".5" d="m105 150 75-85 16 76-91 9ZM23 17l58 130-81 12L23 17Z"/><path fill="#fff" fill-opacity=".5" d="m119 163-102 2 45-17 57 15Z"/><path fill-opacity=".5" d="M185 17 17 34l169 28-1-45Z"/><path fill="#fffff8" fill-opacity=".5" d="m125 38-4 93 47-58-43-35Z"/><path fill="#ff6700" fill-opacity=".5" d="m104 93 56-23-90 7 34 16Z"/><path fill="#fff" fill-opacity=".5" d="m130 42 15 7-50 23 35-30Zm25 101 3 36H83l72-36Z"/><path fill-opacity=".5" d="m5 27 191-1L12 80 5 27Z"/><path fill-opacity=".5" d="m164 25-7 142 39-14-32-128Zm-66 88 31 47L0 131l98-18Z"/><path fill-opacity=".5" d="m177 179-39-57 58-105-19 162Z"/><path fill="#fff" fill-opacity=".5" d="m44 162 29-15 60 28-89-13Zm83-73-72 16 20 14 52-30Z"/><path fill-opacity=".5" d="m2 164 152-35-122-20-30 55Z"/><path fill-opacity=".5" d="m0 51 35 105L96 17 0 51Zm196 41L83 142l27 26 86-76Z"/><path fill="#fff" fill-opacity=".5" d="m89 96-44 28 46-71-2 43Z"/><path fill="#fff0d4" fill-opacity=".5" d="M137 72 81 56 71 78l66-6Z"/><path fill="#fff" fill-opacity=".5" d="m63 106 12 4-27 2 15-6Zm53 21 45-44-72 12 27 32Z"/></svg>