<svg xmlns="http://www.w3.org/2000/svg" viewBox="0 0 196 162"><path fill="#4d4944" d="M16 16h165v131H16z"/><path fill="#fff" fill-opacity=".5" d="M150 102 50 95 153 3l-3 99Z"/><path fill="#fff" fill-opacity=".5" d="M131 113 86 33 62 83l69 30Z"/><path fill-opacity=".5" d="m105 133 75-85 16 76-91 9ZM23 0l58 130-81 12L23 0Z"/><path fill="#fff" fill-opacity=".5" d="m119 146-102 2 45-17 57 15Z"/><path fill-opacity=".5" d="M185 0 17 17l169 28-1-45Z"/><path fill="#fffff8" fill-opacity=".5" d="m125 21-4 93 47-58-43-35Z"/><path fill="#ff6700" fill-opacity=".5" d="m104 76 56-23-90 7 34 16Z"/><path fill="#fff" fill-opacity=".5" d="m130 25 15 7-50 23 35-30Zm25 101 3 36H83l72-36Z"/><path fill-opacity=".5" d="m5 10 191-1L12 63 5 10Z"/><path fill-opacity=".5" d="m164 8-7 142 39-14L164 8ZM98 96l31 47L0 114l98-18Z"/><path fill-opacity=".5" d="m177 162-39-57L196 0l-19 162Z"/><path fill="#fff" fill-opacity=".5" d="m44 145 29-15 60 28-89-13Zm83-73L55 88l20 14 52-30Z"/><path fill-opacity=".5" d="m2 147 152-35L32 92 2 147Z"/><path fill-opacity=".5" d="m0 34 35 105L96 0 0 34Zm196 41L83 125l27 26 86-76Z"/><path fill="#fff" fill-opacity=".5" d="m89 79-44 28 46-71-2 43Z"/><path fill="#fff0d4" fill-opacity=".5" d="M137 55 81 39 71 61l66-6Z"/><path fill="#fff" fill-opacity=".5" d="m63 89 12 4-27 2 15-6Zm53 21 45-44-72 12 27 32Z"/></svg>