<?xml version="1.0" standalone="no"?>
<!DOCTYPE svg PUBLIC "-//W3C//DTD SVG 20010904//EN"
 "http://www.w3.org/TR/2001/REC-SVG-20010904/DTD/svg10.dtd">
<svg version="1.0" xmlns="http://www.w3.org/2000/svg"
 width="700.000000pt" height="700.000000pt" viewBox="0 0 700.000000 700.000000"
 preserveAspectRatio="xMidYMid meet">
<metadata>
Created by potrace 1.14, written by Peter Selinger 2001-2017
</metadata>
<g transform="translate(0.000000,700.000000) scale(0.100000,-0.100000)"
fill="#000000" stroke="none">
<path d="M3300 6880 c-701 -86 -1272 -564 -1474 -1234 -71 -233 -70 -219 -74
-1058 l-3 -758 -220 0 -219 0 0 -220 0 -220 -55 0 -55 0 0 110 0 110 -110 0
-110 0 0 -110 0 -110 -55 0 -56 0 3 -107 3 -108 52 -3 52 -3 3 -107 3 -107
108 -3 107 -3 0 111 0 110 60 0 60 0 0 -47 c0 -61 33 -265 60 -365 32 -124 93
-285 150 -397 111 -223 218 -371 394 -547 185 -184 366 -311 598 -419 l105
-49 11 -74 c40 -255 216 -457 485 -557 l47 -18 0 -293 0 -294 110 0 110 0 0
274 0 274 110 0 110 0 0 -274 0 -274 110 0 110 0 0 294 0 293 48 18 c195 73
336 193 416 355 41 85 75 199 76 255 0 16 24 31 108 70 234 109 412 233 598
419 224 225 383 473 485 758 65 182 119 435 119 557 l0 41 60 0 60 0 0 -110 0
-111 108 3 107 3 3 107 3 107 52 3 52 3 3 108 3 107 -56 0 -55 0 0 110 0 110
-110 0 -110 0 0 -110 0 -110 -55 0 -55 0 0 220 0 220 -220 0 -220 0 0 703 c0
837 -5 898 -91 1161 -199 607 -722 1058 -1359 1171 -112 19 -393 28 -500 15z
m308 -262 l3 -48 -110 0 -111 0 0 43 c0 24 3 47 7 51 4 4 52 5 107 4 l101 -3
3 -47z m-438 -18 l0 -30 -102 0 c-56 0 -99 2 -97 4 6 6 170 55 187 55 7 1 12
-11 12 -29z m795 -5 l70 -23 -102 -1 -103 -1 0 31 c0 29 1 30 33 24 17 -4 64
-18 102 -30z m-1015 -135 l0 -110 -105 0 -105 0 0 61 0 60 103 49 c56 28 103
50 105 50 1 0 2 -49 2 -110z m1243 44 l67 -34 0 -60 0 -60 -105 0 -105 0 0
109 0 110 38 -16 c20 -8 67 -31 105 -49z m-803 -49 l0 -105 -105 0 -105 0 0
105 0 105 105 0 105 0 0 -105z m430 0 l0 -105 -105 0 -105 0 0 105 0 105 105
0 105 0 0 -105z m-1090 -220 l0 -105 -105 0 -105 0 0 93 c0 59 4 97 12 105 8
8 46 12 105 12 l93 0 0 -105z m438 84 c-2 -16 -23 -28 -88 -53 -47 -18 -93
-36 -102 -41 -16 -6 -18 0 -18 54 l0 61 106 0 c101 0 105 -1 102 -21z m872
-39 c0 -33 -2 -60 -5 -60 -4 0 -20 7 -38 16 -17 9 -61 27 -97 39 -50 17 -66
27 -68 43 -3 21 0 22 102 22 l106 0 0 -60z m428 48 c8 -8 12 -46 12 -105 l0
-93 -105 0 -105 0 0 105 0 105 93 0 c59 0 97 -4 105 -12z m-1958 -313 l0 -105
-105 0 -105 0 0 93 c0 59 4 97 12 105 8 8 46 12 105 12 l93 0 0 -105z m275 95
c-3 -5 -15 -15 -26 -20 -16 -9 -19 -7 -19 10 0 15 7 20 26 20 14 0 22 -4 19
-10z m1475 -10 c0 -17 -3 -19 -19 -10 -32 16 -34 30 -7 30 19 0 26 -5 26 -20z
m428 8 c8 -8 12 -46 12 -105 l0 -93 -105 0 -105 0 0 105 0 105 93 0 c59 0 97
-4 105 -12z m-2398 -312 l0 -105 -109 -3 -109 -3 19 47 c10 27 32 75 49 108
l30 60 60 0 60 0 0 -104z m260 85 c-16 -32 -30 -34 -30 -7 0 19 5 26 20 26 17
0 19 -3 10 -19z m1930 -7 c0 -27 -14 -25 -30 7 -9 16 -7 19 10 19 15 0 20 -7
20 -26z m380 -34 c17 -33 39 -81 49 -108 l19 -47 -109 3 -109 3 0 105 0 104
60 0 60 0 30 -60z m-2445 -177 c-5 -10 -23 -56 -41 -103 -25 -65 -37 -86 -53
-88 -20 -3 -21 1 -21 102 l0 106 61 0 c54 0 60 -2 54 -17z m2285 -89 c0 -101
-1 -105 -21 -102 -16 2 -28 23 -53 88 -18 47 -36 93 -41 103 -6 15 0 17 54 17
l61 0 0 -106z m-2630 -4 l0 -100 -31 0 c-29 0 -31 2 -25 28 13 52 49 172 52
172 2 0 4 -45 4 -100z m2915 -67 c6 -32 5 -33 -24 -33 l-31 0 1 103 1 102 23
-70 c12 -38 26 -85 30 -102z m-2695 -143 l0 -110 -105 0 -105 0 0 110 0 110
105 0 105 0 0 -110z m2630 0 l0 -110 -105 0 -105 0 0 110 0 110 105 0 105 0 0
-110z m-2850 -220 l0 -110 -50 0 -50 0 0 94 c0 122 2 126 56 126 l44 0 0 -110z
m2954 94 c3 -9 6 -58 6 -110 l0 -94 -50 0 -50 0 0 110 0 110 44 0 c31 0 46 -5
50 -16z m-2734 -309 l0 -105 -105 0 -105 0 0 105 0 105 105 0 105 0 0 -105z
m2630 0 l0 -105 -105 0 -105 0 0 105 0 105 105 0 105 0 0 -105z m-1172 -775
l1282 0 0 -380 0 -380 -1530 0 -1530 0 0 387 0 386 248 -6 c136 -4 824 -7
1530 -7z m-1998 -650 l0 -110 -110 0 -110 0 0 110 0 110 110 0 110 0 0 -110z
m3720 0 l0 -110 -110 0 -110 0 0 110 0 110 110 0 110 0 0 -110z m-3706 -342
c2 -7 12 -56 21 -108 37 -202 130 -432 252 -620 351 -540 1002 -849 1641 -779
306 33 594 141 842 317 122 86 316 280 402 402 140 197 253 461 293 680 9 52
19 101 21 108 2 9 34 12 115 12 l112 0 -6 -79 c-21 -265 -136 -591 -294 -830
-315 -475 -819 -777 -1388 -831 -141 -13 -409 -13 -550 0 -573 55 -1090 367
-1398 846 -151 233 -264 557 -283 807 l-7 87 112 0 c81 0 113 -3 115 -12z
m3246 -5 c-1 -37 -40 -191 -70 -278 -41 -116 -123 -274 -197 -378 -77 -109
-246 -277 -358 -356 -202 -142 -435 -233 -682 -266 -495 -66 -987 111 -1327
477 -128 138 -245 327 -313 507 -27 72 -73 254 -73 289 l0 22 1510 0 c1432 0
1510 -1 1510 -17z m-1960 -1924 c115 -22 151 -24 450 -24 332 0 366 3 598 51
41 8 41 0 1 -83 -60 -126 -182 -217 -356 -265 -113 -31 -373 -31 -486 0 -174
48 -296 139 -356 265 -39 81 -39 91 -3 84 15 -2 83 -15 152 -28z"/>
</g>
</svg>
