<svg version="1" xmlns="http://www.w3.org/2000/svg" width="933.333" height="933.333" viewBox="0 0 700.000000 700.000000"><path d="M35.1 1.6C18.2 6.1 4.7 20.1 1.1 36.8c-1.5 7.1-1.5 61.3 0 68.4C3 114.1 6.9 121 13.9 128c3.6 3.6 8.4 7.4 10.6 8.5l4.4 2.2c.2.1-2.1 5.8-5.2 12.5-10.4 23.2-17 45.2-20.9 70.3-3.1 20.1-3.1 55.9 0 76 8.3 52.8 30 98.5 65.7 137.8 5.1 5.6 10.4 11.3 11.9 12.6l2.6 2.4v18.2c0 17.5-.1 18.3-2.6 23.3-10.9 21.9-42.9 18.8-49.4-4.8-.5-1.9-1-10.6-1-19.3 0-17.9-.9-21.4-6.2-24.7-6.4-3.9-15.1-1.9-18.8 4.3-1.8 2.9-2 5.1-2 21.7 0 20.8 1 26.4 6.2 36.3 10.9 20.3 33.9 31.7 56.4 27.8 14.2-2.5 28.5-12 36.5-24.4 4.9-7.6 7-14 8.3-26l1.1-9.7 6.5 4.3c30.9 20.7 71.7 35.5 111 40.3 18.7 2.3 55.3 1.5 72.6-1.4 27.2-4.8 50.6-12.4 74.4-24.4l15.5-7.7 99.5 99.3C545.7 638 592.3 684 594.5 685.7c10.8 8.2 24.1 12.6 38.5 12.7 11.8.1 18-1.4 29.8-7 13-6.2 22.4-15.6 28.6-28.6 5.6-11.7 7-17.9 7-29.8-.1-11.5-2.1-19.6-7.7-30.5-3.9-7.7-6.8-10.7-80.8-85l-76.8-77 2.7-3.7c5.4-7.5 12-10.8 21.4-10.8 8.1 0 15.1 3.2 20.1 9.1 4.9 5.7 6.7 12.1 6.7 23.6 0 10.5 1.2 13.9 5.9 17.2 4 2.9 11.8 2.9 15.5 0 4.7-3.7 5.6-6.8 5.6-19.6 0-13.2-1.3-19.5-5.9-28.8-10.3-20.6-35.5-32.9-57.8-28.1-11.2 2.3-19.8 6.9-27.5 14.6l-6.7 6.7-14.6-14.7-14.6-14.6 6-11.5c11.5-21.9 20.6-48.1 25.1-72.6l2.3-12.2 4.6 2.3c10.5 5.3 25.6 7.2 37.1 4.5 13.3-3.1 27.9-14.4 34.4-26.8 5.9-11.3 6.8-17.4 6.4-42.1-.4-19.9-.6-22-2.9-28-6.8-17.8-20.8-30.2-39.1-34.5-15.3-3.6-32.7.4-45.2 10.4-2.2 1.7-4 3-4.2 2.8-.2-.2-2-5-4-10.7-8.4-24.3-25.1-55.5-32.1-60.1-6.3-4.2-16-1.3-19.4 5.8-2.9 6-2.2 8.4 6 22.2 45.7 76.4 43.2 173.5-6.3 247.5-37.8 56.5-96.4 92.7-164.6 101.8-14.3 1.9-46 1.6-60.5-.6-40.7-6.1-75.5-20.7-108.2-45.2C78.4 413.7 47.7 367.3 35 317c-4.5-17.7-6.1-29.7-6.7-50.2-1.2-41.1 6.8-77.2 24.8-112.5C83.3 95.4 137.5 51.9 201.3 35.5c22.1-5.6 33.3-7 58.7-7 25.4 0 36.6 1.4 58.7 7 21.5 5.5 41.4 14 62.3 26.4 7.8 4.6 10.2 5.6 13.8 5.5 5.1-.1 9-2.6 11.4-7.5 5.4-10.4-.4-17-27.3-30.8C295.3-14.2 194.6-8.6 116 43.5c-5.2 3.5-12.4 8.6-16 11.5l-6.5 5.2-.6-11.8C92 31.7 88 21.9 78.2 12.8 66.6 2 49.9-2.4 35.1 1.6zm21.4 28.9c2.3 1.3 5.1 4.2 6.5 6.7 2.4 4.2 2.5 4.9 2.8 26.8l.3 22.5-4.2 5c-2.3 2.7-7.3 9.1-11.1 14.2-6.7 8.8-7 9.1-9.9 8.3-4.6-1.3-8.8-4.8-11.2-9.3-2.1-4.1-2.2-5.1-2.2-33.7V41.5l2.5-4.3c5.4-9.6 16.8-12.5 26.5-6.7zm501.2 168.7c4.9 2.3 10.8 8.4 13.1 13.7 1.4 2.9 1.7 7.1 1.7 23.1 0 19.5 0 19.5-2.9 25.4-4.5 9.1-13 14.4-23.6 14.5-9.8.1-19.5-6.1-24-15.4-1.8-3.7-2-6.2-2-24.1 0-17.1.3-20.5 1.9-23.9 6.4-14.1 21.9-19.8 35.8-13.3zm39.4 344.5c78.8 79 74.4 73.6 74.4 90.8 0 8.7-.3 10.7-2.7 15.7-3.7 7.9-9.8 14.2-17.7 18.1-6.1 3-7.3 3.2-16.6 3.2-17 0-11.7 4.3-91-74.7l-69-68.8 26.5-26.5c14.6-14.6 26.7-26.5 27-26.5.3 0 31.4 30.9 69.1 68.7z"/><path d="M519.5 1.4c-4 1.8-31.1 29.3-32.5 32.9-1.5 4.2-1.2 7.8 1 11.5 4.6 7.5 13.4 9.2 20.5 3.8l3.5-2.7V107h-6.7c-8.1 0-12.8 2-16 6.9-4 5.9-2.2 14.4 3.9 18.1 3.1 1.9 5 2 32.7 2h29.3l3.9-3.9c3.5-3.4 3.9-4.4 3.9-8.7 0-9.7-5.7-14.4-17.4-14.4H539V59.2c0-43.4-.2-48-1.8-51.2-3.4-6.8-10.9-9.6-17.7-6.6zM634 1.5c-16.9 4.2-29.3 14.4-36.9 30.3-4.4 9.4-5.4 17.5-4.9 39.5.4 16.4.8 20.1 2.7 25.1 6.1 16.8 19 29.6 35 34.7 9.1 2.9 23.1 2.9 32.2 0 12.9-4.1 25.8-15 31.8-26.9 5-9.9 6.1-16.4 6.1-37.3 0-21.2-1.6-29.8-7.2-39.8-4-7-13.7-16.7-20.5-20.4C661.2.8 645.7-1.4 634 1.5zm21.1 27c6.4 2.2 11.3 6.7 14.6 13.3 2.8 5.7 2.8 5.8 2.8 25.2 0 19.2 0 19.6-2.7 24.5-5.1 9.8-12.9 14.4-23.9 14.5-11.1 0-19.4-5.4-24.3-16-1.9-4.1-2.1-6.3-2.1-23.5 0-21.8.8-24.9 8.5-32.3 6.9-6.8 17.5-9 27.1-5.7zM233.4 61.6C148.6 73.1 80 137.7 63.6 221.5c-8.3 42.2-2 88.8 16.9 126.5 5.5 11 7.9 13.2 14.8 13.8 4.7.4 5.7.1 8.6-2.4 3.5-3 6.1-7.8 6.1-11.6 0-1.2-2.4-7.4-5.4-13.8-10.9-23.1-15.5-42.3-16.3-67.7-1.1-32 4.8-58 19.3-86.4 23.3-45.3 65.2-76.8 117.4-88.1 9.2-1.9 13.4-2.2 33.5-2.3 18.6 0 24.6.4 31.5 1.8 35.5 7.6 62.6 21.4 86.9 44.4 49.3 46.3 66.7 117.5 44.4 181.7-33.2 95.8-143.3 141.2-236.2 97.5-5.7-2.7-11.7-4.9-13.3-4.9-10.4 0-17.3 12.5-11.6 21 4.7 7.1 37.1 20.3 60.9 24.9 63.5 12.2 127.4-6.1 175.5-50.3 8.4-7.7 21.7-23.5 29.7-35.5 7.7-11.3 18.7-33.9 23.2-47.6 11.7-35.9 13.1-74.6 3.9-111.6-19.7-79.3-86.7-138.8-168.2-149.3-14.8-1.9-37.8-1.9-51.8 0zM425.2 74.2c-4.5 3.2-6.9 9.6-5.3 14.7 1.3 4.3 7.6 10.7 11.6 11.7 9.4 2.4 19-6.5 17.1-15.9-.8-3.9-4.9-9.3-8.6-11.2-4.3-2.2-10.9-1.9-14.8.7zM655.5 170.9c-1.6 1-9.6 8.6-17.7 16.8-10.2 10.3-14.8 15.7-15 17.4-.4 7.8 1.3 11.7 6.5 14.9 5.4 3.3 11.2 2.5 16.5-2.3l2.2-2V276h-6.6c-11.7 0-17.4 4.7-17.4 14.4 0 4.3.4 5.3 3.9 8.7l3.9 3.9h29.3c27.7 0 29.6-.1 32.7-2 6.1-3.7 7.9-12.2 3.9-18.1-3.2-4.9-7.9-6.9-15.9-6.9H675v-48.8c0-47.1-.1-48.8-2-52-3.6-5.8-11.9-7.8-17.5-4.3z"/><path d="M181 184c-17.9 4.8-32.1 16.2-39.9 32-6.4 13.2-7.3 19.4-6.9 47.5.4 22.9.5 24.3 3 31.3 6.6 18.4 19.2 31.4 37.3 38.7 5.8 2.3 8.9 2.9 18 3.3 13.2.5 19.7-.6 29.6-5.4 16.2-7.8 27.7-21.1 33.1-38.4 2.2-7 2.3-9.1 2.3-33.5 0-22.4-.3-26.8-1.8-32-8.2-26.7-30.5-44.1-57.7-45.1-7.3-.3-11.3.1-17 1.6zm28.4 27.9c7 3.1 11.2 6.5 15.1 12.4 5.7 8.6 6.7 14.9 6.3 38.6-.3 19.9-.4 20.8-3 26.3-7 14.9-21.8 23.1-37.4 20.6-11.1-1.7-21.1-9.4-26-20.1l-2.9-6.2v-24c0-23.8 0-24.1 2.6-29.5 4.6-9.8 11.9-16.2 22.2-19.6 5.9-2 17-1.2 23.1 1.5zM336.4 183.6c-1.7.8-10.8 9.3-20.1 18.7-14.4 14.5-17.1 17.8-17.7 21-2 10.6 8.1 19.4 17.7 15.4 2-.9 5.6-3.4 8.2-5.8l4.5-4.2-.2 40.9-.3 40.9-10.5.5c-6.6.3-11.3 1-12.6 1.9-7.5 5-7.1 17.9.6 22.5 2.5 1.4 7.1 1.6 36.5 1.6s34-.2 36.5-1.6c3.9-2.4 6-6.5 6-11.8 0-3.9-.6-5.2-3.4-8.4l-3.4-3.7-10.9-.5-10.8-.5-.5-60c-.5-55.8-.6-60.2-2.3-62.7-3.6-5.3-11.3-7.2-17.3-4.2zM124.9 377.9c-6.4 2-10.9 7.6-10.9 13.6 0 4.1 3 9.5 6.4 11.6 3.7 2.2 10.6 2.5 14.4.5 3.5-1.8 7.2-8.4 7.2-12.7 0-8.5-9.1-15.4-17.1-13zM658 400.7c-2.7.6-31.3 28.2-33.6 32.5-6.5 12.5 8.2 25.2 19.9 17.3l3.7-2.6V507h-4.7c-8 .1-12.5 1.6-16 5.4-6 6.6-3.9 16.7 4.2 20.6 3.8 1.8 6.3 2 30.6 2 29.5 0 31.2-.3 35.6-6.9 2.6-3.9 2.9-7.7.9-12.5-2.3-5.5-6.5-7.7-15.6-8.3l-8-.6v-48.4c0-54.6.3-52.5-7.5-56.3-4.2-2-4.9-2.1-9.5-1.3zM17.3 582.2C.6 599.1-.8 601.1.4 607.5c1.9 10.1 15.6 14.7 22.1 7.5 1-1.1 2.2-2 2.7-2 .4 0 .7 13.4.6 29.7l-.3 29.8-8 .5c-9.7.6-12.1 1.9-14.7 7.7-2.3 5.2-1.9 9.7 1.3 13.7 4.2 5.4 5.6 5.6 34.8 5.6 16.7 0 28-.4 29.8-1.1 9.8-3.7 11.8-15.7 3.7-22.8-3.3-2.9-4-3.1-11.4-3.1h-8v-48.5c0-53.6.1-52.6-6.3-56.5-2-1.3-5-2-8.2-2h-4.9l-16.3 16.2zM154.5 567.1c-3.1 1.8-29.5 28.1-31.1 31.1-1.9 3.6-1.8 10.3.2 13.8 4 6.6 13.6 8.3 19.9 3.5l3.5-2.6V673h-7c-8.3 0-12.2 1.7-15 6.3-4.1 6.7-1.6 15.8 5.3 19 3 1.5 7.4 1.7 30.7 1.7 29.1 0 30-.1 34.8-5.3 5-5.3 3.4-15.8-3-19.7-2.5-1.5-5-2-10.5-2H175v-46.3c0-25.4-.5-48-1-50.2-.6-2.5-2.2-5.2-4.4-7.3-3-2.7-4.3-3.2-8.3-3.2-2.7 0-5.7.6-6.8 1.1zM267.1 567.6c-15.8 4.2-29.4 16.8-35.9 33.1-2.5 6.5-2.6 7.8-3 28.8-.4 24.9.5 31.5 6 41.8 19.5 36.4 70.2 38.2 93 3.2 7.1-10.9 8.3-16.9 8.3-41.5 0-23.6-.5-26.9-6.1-38.1-6.2-12.5-17.1-21.8-31.3-26.6-7.9-2.7-22.4-3-31-.7zm26.4 28.2c5.2 2.7 9.9 7.6 12.4 13.2 1.8 4 2.1 6.6 2.1 23 0 10.2-.5 20.2-1 22.2-2.9 10.2-14 18.2-25.4 18.2-11.4 0-21.8-7.7-25-18.5-2.3-7.7-2.2-35.7.1-43 2.1-6.7 9-13.9 15.4-16.2 5.9-2.2 16.1-1.7 21.4 1.1zM396.5 567.9c-1.6 1-9.4 8.3-17.2 16.3-11.4 11.6-14.3 15.1-14.8 18-1.4 7.4 3.7 15 10.9 16.4 4.2.7 7.1-.1 11.4-3.3l3.2-2.4v59.9l-8.6.3c-8.4.4-8.6.5-12 4.1-2.9 3.2-3.4 4.5-3.4 8.5 0 3 .7 6 2 8.1 3.6 5.8 5.8 6.2 36.2 6.2 25.5 0 27.5-.1 30.6-2 6.6-4 8.7-10.9 5.6-17.7-2.5-5.2-5.6-6.7-14.8-7.3l-8.1-.5-.5-49.8-.5-49.9-3.7-3.4c-3.2-2.9-4.5-3.4-8.5-3.4-2.9 0-6 .7-7.8 1.9z"/></svg>