<svg xmlns="http://www.w3.org/2000/svg" viewBox="0 0 64 64"><path fill="#d6cac0" d="M30 57h5v6h-5z"/><path fill="#bdb2aa" d="M39 51c0 4-3 6-7 6s-7-2-7-6"/><path fill="none" stroke="#544f4b" stroke-miterlimit="10" stroke-width="2" d="M51 34a18 18 0 0 1-18 18h-2a18 18 0 0 1-18-18"/><path fill="#f0ebe7" d="M47 25v8a15 15 0 0 1-15 15 15 15 0 0 1-15-15v-8"/><path fill="#7ccacb" d="M17 25v-8A15 15 0 0 1 32 2a15 15 0 0 1 15 15v8"/><path fill="#5ca1a1" d="M21 25v-8a11 11 0 0 1 22 0v8"/><path fill="#ddd2ca" d="M34 46a13 13 0 0 1-13-13V23h26v10a13 13 0 0 1-13 13Z"/><path fill="#fa8a8a" d="M17 21h30v4H17z"/><path fill="#dd7a7a" d="M17 23h30v2H17z"/><rect width="30" height="46" x="17" y="2" fill="none" stroke="#544f4b" stroke-miterlimit="10" stroke-width="2" rx="15" ry="15"/><path fill="none" stroke="#544f4b" stroke-miterlimit="10" stroke-width="2" d="M17 25h30M30 63v-6M34 63v-6M17 21h30M8 34h48M31 5h2M33 7h2M31 9h2M29 7h2M35 9h2M35 5h2M37 7h2M39 9h2M29 5h-2M27 7h-2M29 9h-2M25 9h-2M41 7h2M21 7h2M23 5h2M29 3h2M33 3h2M39 5h2M25 11h2M29 11h2M33 11h2M37 11h2M41 11h2M23 11h-2M21 9h-2M19 13h2M23 13h2M27 13h2M31 13h2M35 13h2M39 13h2M43 13h2M17 15h2M21 15h2M25 15h2M29 15h2M33 15h2M37 15h2M41 15h2M45 15h2M43 9h2M19 17h2M23 17h2M27 17h2M31 17h2M35 17h2M39 17h2M43 17h2M17 19h2M21 19h2M25 19h2M29 19h2M33 19h2M37 19h2M41 19h2M45 19h2M13 34v-4h3M51 34v-4h-3M54 31v6M10 31v6M39 51c0 4-3 6-7 6s-7-2-7-6"/></svg>