<?xml version="1.0" standalone="no"?>
<!DOCTYPE svg PUBLIC "-//W3C//DTD SVG 20010904//EN"
 "http://www.w3.org/TR/2001/REC-SVG-20010904/DTD/svg10.dtd">
<svg version="1.0" xmlns="http://www.w3.org/2000/svg"
 width="700.000000pt" height="700.000000pt" viewBox="0 0 700.000000 700.000000"
 preserveAspectRatio="xMidYMid meet">
<metadata>
Created by potrace 1.14, written by Peter Selinger 2001-2017
</metadata>
<g transform="translate(0.000000,700.000000) scale(0.100000,-0.100000)"
fill="#000000" stroke="none">
<path d="M2940 6218 l-475 -169 -745 -2 -744 -2 -75 168 c-53 119 -77 163 -81
150 -4 -10 -17 -87 -30 -170 l-23 -153 -294 0 c-161 0 -293 -3 -293 -7 0 -5
22 -174 50 -378 27 -203 47 -372 45 -376 -3 -3 -65 -27 -139 -53 l-134 -48
210 -629 210 -629 -127 -783 c-70 -430 -128 -783 -130 -785 -1 -2 -36 -9 -76
-16 -41 -8 -72 -15 -69 -16 3 -1 34 -9 70 -18 55 -14 65 -20 63 -37 -2 -11
-36 -227 -77 -480 -41 -253 -74 -460 -73 -461 1 -1 40 4 87 11 47 7 86 11 88
10 2 -2 -19 -45 -47 -96 -28 -50 -49 -94 -46 -97 2 -2 111 20 242 50 l238 55
3 -60 3 -60 112 6 c62 4 378 7 702 8 640 1 617 -2 307 45 -62 9 -110 20 -105
24 4 4 196 105 425 224 l418 216 402 -106 c458 -120 450 -117 658 -214 119
-55 166 -82 202 -118 26 -25 45 -48 42 -51 -3 -3 -135 -9 -292 -12 l-287 -5
309 -2 308 -2 77 -75 77 -75 87 75 88 75 739 0 c406 0 745 -3 754 -6 12 -4 16
-20 16 -56 0 -58 -18 -58 164 8 186 68 154 88 362 -216 97 -143 179 -258 182
-255 4 4 61 463 62 497 0 13 11 18 43 20 l42 3 3 101 3 100 247 89 c136 48
254 92 263 96 15 8 12 28 -32 201 -27 106 -49 201 -49 210 0 13 11 18 48 20
35 2 47 7 45 18 -1 8 -70 340 -153 737 l-152 723 26 22 c14 13 79 70 145 128
66 58 118 106 116 108 -1 2 -69 -27 -150 -63 -82 -36 -150 -63 -152 -61 -9 9
287 2481 298 2485 7 2 8 6 1 10 -7 4 -4 55 8 156 9 83 17 151 15 152 -1 2 -39
-66 -86 -150 l-84 -152 -107 -3 -108 -3 0 161 c0 105 -4 160 -10 160 -6 0
-745 -74 -1643 -165 -898 -91 -1641 -164 -1653 -163 -19 3 -16 13 48 158 37
85 67 157 66 161 -2 3 -217 -70 -478 -163z m3832 -240 c-11 -18 -45 -80 -77
-138 -31 -58 -61 -109 -66 -114 -5 -6 -9 39 -9 112 l0 121 78 25 c99 31 97 32
74 -6z m-1881 -680 c76 -61 136 -114 134 -118 -2 -3 -42 -24 -89 -44 -48 -21
-86 -42 -86 -45 0 -4 85 -21 189 -38 l189 -31 98 -78 97 -79 -6 -194 c-4 -106
-8 -195 -9 -196 -2 -1 -120 -12 -263 -24 -143 -12 -343 -30 -445 -41 -102 -10
-228 -21 -280 -25 -85 -5 -517 -45 -1022 -94 -97 -9 -179 -19 -181 -21 -3 -3
-8 -82 -12 -175 l-7 -171 241 -113 c237 -112 241 -114 295 -107 30 3 76 15
103 27 35 15 52 18 64 10 12 -7 80 1 243 28 124 21 229 41 233 45 4 4 9 38 11
76 4 68 4 69 41 83 20 9 245 101 500 206 256 105 468 191 472 191 4 0 5 -88 2
-195 -4 -113 -2 -195 3 -195 5 0 71 11 147 24 75 12 137 19 137 15 0 -17 -127
-166 -211 -249 -54 -53 -89 -94 -89 -107 0 -26 0 -25 -365 -479 l-310 -385
-110 5 c-101 4 -112 2 -132 -16 l-23 -21 40 -72 40 -72 -58 -25 c-44 -20 -67
-24 -97 -19 -34 5 -40 10 -43 34 l-3 28 -30 -26 c-20 -16 -38 -23 -52 -20 -12
2 -62 11 -111 20 -126 21 -158 40 -248 149 l-78 93 -82 6 c-46 4 -102 7 -124
7 -39 0 -44 3 -73 48 l-31 49 -80 -15 -81 -15 -95 42 -94 42 -88 -52 -87 -52
-295 20 c-302 20 -333 26 -346 65 -3 11 -15 18 -29 18 -13 0 -27 5 -30 10 -4
7 -28 8 -63 5 -93 -10 -312 -21 -312 -15 0 3 11 21 24 40 18 26 42 42 96 64
l73 29 -33 27 c-32 26 -32 27 -16 57 16 32 44 45 118 58 35 7 36 8 25 32 -10
23 -8 28 23 55 23 19 31 31 23 35 -7 2 -13 11 -13 18 0 52 257 497 448 774
l17 24 -43 -6 c-23 -4 -42 -4 -42 -1 0 5 299 634 305 642 1 1 51 16 111 33 60
17 116 34 124 39 9 4 29 10 46 14 27 6 33 3 45 -21 35 -70 235 -422 240 -423
3 0 63 52 135 115 71 64 141 122 155 129 14 7 135 106 268 220 l241 208 85
-15 85 -14 1 41 c0 23 4 61 7 85 l7 44 145 43 c80 23 147 43 149 43 2 1 66
-49 142 -111z m-676 -4107 c15 -6 9 -9 -25 -14 -48 -6 -56 -4 -45 12 7 12 41
13 70 2z"/>
<path d="M4197 4797 c-129 -59 -212 -104 -205 -108 21 -11 418 -122 422 -118
8 9 17 329 9 328 -4 0 -106 -46 -226 -102z"/>
</g>
</svg>
